<?xml version="1.0" encoding="UTF-8" standalone="no"?>
<!DOCTYPE svg PUBLIC "-//W3C//DTD SVG 1.1//EN" "http://www.w3.org/Graphics/SVG/1.1/DTD/svg11.dtd">
<svg width="100%" height="100%" viewBox="0 0 600 400" version="1.1" xmlns="http://www.w3.org/2000/svg" xmlns:xlink="http://www.w3.org/1999/xlink" xml:space="preserve" xmlns:serif="http://www.serif.com/" style="fill-rule:evenodd;clip-rule:evenodd;stroke-linejoin:round;stroke-miterlimit:2;">
    <g id="Layer1">
        <rect x="-1028.23" y="-248.288" width="1712.17" height="4055.19" style="fill:#3d4345;"/>
        <rect x="-13.101" y="-13.059" width="626.202" height="426.201" style="fill:url(#_Radial1);"/>
        <g id="CorelEMF" serif:id="CorelEMF">
        </g>
        <g id="CorelEMF1" serif:id="CorelEMF">
        </g>
        <g>
            <g id="CorelEMF2" serif:id="CorelEMF">
            </g>
        </g>
        <g id="CorelEMF3" serif:id="CorelEMF">
        </g>
        <g id="CorelEMF4" serif:id="CorelEMF">
        </g>
        <g>
            <path d="M294.027,83.862C291.065,81.906 287.235,81.581 283.923,83.15C279.864,85.073 277.515,89.401 278.114,93.852C278.58,97.314 278.6,99.936 277.901,101.713C277.849,101.845 277.74,102.025 277.689,102.106C276.37,102.168 275.048,101.264 273.862,100.146C270.88,97.335 269.36,92.43 270.939,86.446C272.202,81.658 269.886,76.648 265.42,74.508C260.955,72.368 255.599,73.701 252.658,77.684C240.045,94.766 241.913,106.793 245.675,116.708C244.164,115.29 242.343,113.886 240.137,112.514C236.996,110.56 233.049,110.436 229.792,112.191C226.535,113.945 224.466,117.308 224.369,121.006C224.292,123.928 222.89,126.155 221.502,128.265C220.987,129.049 220.456,129.817 219.924,130.576C219.055,130.054 218.124,129.586 217.125,129.18C214.335,128.046 211.189,128.186 208.512,129.565C206.875,130.408 205.513,131.663 204.542,133.181C204.524,133.19 204.507,133.199 204.491,133.207C203.091,133.904 201.788,134.648 200.748,135.45C199.666,136.285 198.749,137.193 198.002,138.175C196.546,137.656 195.066,137.103 193.564,136.504C189.039,134.698 183.869,136.303 181.161,140.352C178.453,144.401 178.945,149.793 182.342,153.285C184.037,155.027 184.828,157.203 185.379,159.557C186.125,162.739 186.406,166.226 186.908,169.791C188.233,179.199 190.38,189.006 197.475,197.827C198.525,207.971 201.69,215.612 205.962,221.408C205.347,235.364 211.085,245.431 219.703,252.408C220.669,275.7 234.603,288.962 247.06,293.635C247.628,295.65 248.719,297.877 250.523,300.15C252.346,302.448 255.144,305.079 258.609,307.852C264.798,312.804 273.597,318.518 280.925,324.312C284.538,327.169 287.911,329.178 289.988,332.744C292.7,337.398 296.57,339.409 300.3,339.281C303.987,339.154 307.75,336.898 310.312,332.373C312.08,329.252 315.164,327.604 318.256,325.117C325.798,319.047 334.892,313.045 341.331,307.899C344.812,305.118 347.625,302.479 349.459,300.173C351.273,297.892 352.37,295.657 352.94,293.635C365.316,288.993 379.148,275.871 380.277,252.858C388.894,245.976 394.714,235.828 394.041,221.403C398.311,215.608 401.475,207.968 402.525,197.827C409.619,189.006 411.767,179.199 413.092,169.791C413.594,166.226 413.875,162.739 414.62,159.557C415.172,157.203 415.963,155.027 417.658,153.285C420.589,150.272 421.4,145.783 419.708,141.935C418.016,138.087 414.16,135.65 409.958,135.773C405.791,135.895 400.814,136.943 395.646,138.651C395.228,138.3 394.774,137.961 394.283,137.635C392.539,136.479 389.443,135.392 385.591,134.434C383.134,133.823 379.983,133.225 377.481,131.377C376.205,130.434 374.764,129.821 373.273,129.539C372.457,128.223 371.567,126.794 370.615,125.2C368.404,121.497 364.124,119.56 359.883,120.342C355.642,121.124 352.334,124.461 351.59,128.708C351.145,131.246 350.364,133.24 349.221,134.524C348.789,135.01 348.359,135.423 347.821,135.386C347.607,135.371 347.535,135.129 347.415,134.921C346.745,133.756 346.569,132.078 346.72,130.044C347.048,125.64 348.803,120.559 349.566,115.246C351.244,103.567 349.892,91.131 333.949,80.303C330.586,78.019 326.196,77.922 322.735,80.055C321.852,80.599 321.072,81.263 320.408,82.017C320.484,79.656 320.922,76.823 321.707,73.465C322.771,68.913 320.642,64.214 316.519,62.012C312.395,59.811 307.306,60.656 304.115,64.073C298.595,69.984 295.505,76.74 294.027,83.862Z"/>
            <path d="M295.78,89.151C295.227,88.494 294.642,87.833 294.023,87.171C291.714,84.698 288.071,84.003 285.014,85.451C281.956,86.9 280.187,90.16 280.638,93.512C281.179,97.536 281.083,100.58 280.271,102.645C279.799,103.846 279.039,104.566 277.921,104.643C275.958,104.778 273.879,103.663 272.115,102C268.58,98.667 266.605,92.89 268.476,85.797C269.427,82.19 267.683,78.417 264.32,76.805C260.956,75.193 256.922,76.197 254.707,79.197C241.964,96.455 244.885,108.215 248.9,117.927C249.828,120.17 250.928,122.235 251.772,124.236C252.436,125.81 252.956,127.32 252.876,128.882C252.764,131.091 252.458,132.946 251.954,134.458C251.778,134.989 251.6,135.469 251.401,135.883C251.368,135.654 251.326,135.371 251.295,135.175C251.074,133.801 250.907,132.323 250.584,130.779C249.517,125.677 247.247,119.937 238.791,114.676C236.425,113.204 233.453,113.112 230.999,114.433C228.546,115.754 226.988,118.287 226.915,121.073C226.824,124.517 225.266,127.178 223.631,129.665C222.628,131.19 221.565,132.657 220.551,134.115C219.286,133.092 217.833,132.217 216.166,131.539C214.064,130.685 211.695,130.791 209.678,131.829C208.261,132.559 207.117,133.699 206.38,135.078C206.112,135.23 205.835,135.383 205.626,135.487C204.385,136.104 203.225,136.755 202.304,137.466C200.871,138.572 199.781,139.822 199.079,141.247C196.978,140.529 194.821,139.747 192.62,138.869C189.212,137.509 185.317,138.718 183.278,141.768C181.238,144.818 181.609,148.879 184.167,151.509C186.193,153.592 187.2,156.162 187.859,158.977C188.621,162.229 188.917,165.792 189.43,169.436C190.725,178.627 192.777,188.243 199.939,196.817C199.945,196.908 199.952,196.999 199.961,197.091C200.946,207.357 204.168,214.959 208.556,220.615C207.661,234.585 213.488,244.468 222.21,251.141C222.723,274.645 236.976,287.686 249.234,291.7C249.566,293.743 250.573,296.116 252.518,298.567C254.248,300.748 256.913,303.233 260.2,305.863C266.385,310.812 275.18,316.523 282.505,322.314C286.393,325.388 289.954,327.625 292.189,331.462C296.454,338.783 304.018,338.32 308.096,331.118C310.019,327.722 313.295,325.84 316.659,323.132C324.204,317.061 333.301,311.056 339.741,305.91C343.045,303.27 345.725,300.776 347.465,298.588C349.421,296.13 350.433,293.748 350.766,291.7C362.948,287.711 377.1,274.806 377.778,251.574C386.494,245.009 392.394,235.054 391.445,220.613C395.832,214.958 399.054,207.356 400.039,197.091C400.048,196.999 400.055,196.908 400.061,196.816C407.222,188.243 409.275,178.627 410.57,169.436C411.083,165.792 411.379,162.229 412.141,158.977C412.8,156.162 413.806,153.592 415.833,151.509C418.04,149.24 418.651,145.858 417.376,142.96C416.102,140.062 413.197,138.226 410.033,138.319C405.69,138.446 400.426,139.651 395.008,141.56C394.423,140.918 393.716,140.315 392.876,139.758C391.295,138.71 388.469,137.774 384.977,136.906C382.239,136.225 378.756,135.485 375.968,133.426C374.71,132.496 373.239,131.992 371.75,131.915C370.758,130.309 369.644,128.541 368.428,126.505C366.763,123.716 363.539,122.257 360.345,122.846C357.15,123.436 354.659,125.949 354.098,129.148C353.555,132.248 352.52,134.649 351.123,136.218C350.105,137.362 348.913,138.015 347.643,137.926C346.609,137.854 345.786,137.198 345.207,136.19C344.335,134.672 343.983,132.505 344.18,129.855C344.511,125.401 346.273,120.258 347.045,114.884C348.604,104.029 347.337,92.475 332.518,82.41C329.985,80.69 326.678,80.616 324.072,82.223C321.465,83.83 320.045,86.817 320.443,89.853C320.471,90.06 320.468,90.251 320.415,90.417C320.401,90.464 320.439,90.538 320.394,90.541C320.205,90.552 320.056,90.399 319.893,90.244C319.581,89.949 319.314,89.542 319.077,89.054C317.491,85.786 317.433,80.561 319.227,72.885C320.029,69.457 318.425,65.917 315.319,64.259C312.213,62.601 308.38,63.237 305.977,65.811C299.58,72.661 296.676,80.727 295.78,89.151Z" style="fill:#ececec;"/>
            <path d="M299.917,333.989L300,333.99C301.697,333.99 303.274,333.114 304.169,331.672C306.34,328.177 310.321,324.555 314.863,320.9C322.41,314.827 331.51,308.82 337.953,303.671C341.057,301.191 343.588,298.86 345.223,296.805C346.855,294.752 347.719,292.787 347.96,291.095C348.035,290.568 348.023,290.042 347.932,289.535C359.899,286.583 374.827,273.906 374.938,250.095C383.781,243.918 389.8,234.191 388.501,219.705C392.957,214.332 396.214,206.953 397.187,196.817C397.221,196.466 397.216,196.118 397.176,195.778C404.516,187.467 406.467,178.021 407.733,169.036C408.784,161.57 408.982,154.443 413.779,149.511C415.173,148.078 415.558,145.943 414.754,144.113C413.949,142.283 412.115,141.124 410.117,141.183C405.475,141.319 399.729,142.787 393.909,145.017C393.417,143.936 392.552,142.98 391.293,142.146C389.895,141.219 387.374,140.454 384.285,139.686C381.231,138.927 377.375,138.027 374.266,135.73C373.08,134.854 371.595,134.576 370.218,134.902C369.011,132.898 367.578,130.67 365.968,127.974C364.917,126.213 362.881,125.292 360.864,125.664C358.847,126.036 357.274,127.623 356.92,129.643C355.612,137.107 351.637,141.078 347.444,140.785C343.513,140.51 340.826,136.328 341.323,129.643C341.658,125.131 343.427,119.919 344.209,114.476C345.635,104.548 344.462,93.986 330.908,84.78C329.309,83.694 327.221,83.648 325.575,84.662C323.929,85.677 323.032,87.563 323.284,89.479C323.575,91.69 322.268,93.299 320.565,93.401C319.015,93.493 317.513,92.394 316.499,90.305C314.727,86.653 314.432,80.812 316.437,72.233C316.943,70.068 315.931,67.834 313.97,66.787C312.008,65.739 309.588,66.141 308.071,67.766C300.669,75.692 298.347,85.387 298.325,95.276C298.323,96.221 298.343,97.168 298.38,98.113C296.88,95.188 294.786,92.186 291.929,89.126C290.471,87.565 288.171,87.126 286.241,88.041C284.31,88.955 283.193,91.013 283.478,93.13C284.73,102.444 282.571,107.196 278.117,107.502C275.45,107.685 272.547,106.344 270.15,104.085C265.992,100.165 263.505,93.408 265.706,85.066C266.306,82.789 265.205,80.406 263.081,79.388C260.958,78.371 258.41,79.004 257.011,80.899C245.185,96.916 247.821,107.818 251.548,116.833C253.397,121.305 255.94,125.067 255.738,129.029C255.61,131.539 255.245,133.645 254.673,135.364C253.972,137.468 253.187,138.926 251.912,139.258C250.95,139.509 250.038,138.813 249.16,137.894C248.595,137.301 248.602,136.478 248.465,135.628C248.252,134.296 248.093,132.862 247.78,131.366C246.833,126.839 244.779,121.776 237.278,117.109C235.784,116.18 233.907,116.121 232.358,116.955C230.809,117.79 229.825,119.389 229.779,121.148C229.673,125.179 227.938,128.327 226.025,131.239C224.408,133.697 222.634,136.003 221.162,138.364C221.109,138.449 221.056,138.534 221.004,138.619C219.527,136.77 217.598,135.215 215.086,134.193C213.76,133.654 212.263,133.721 210.99,134.377C209.875,134.951 209.028,135.927 208.613,137.097C208.272,137.297 207.408,137.8 206.903,138.052C205.842,138.58 204.843,139.126 204.054,139.735C202.26,141.119 201.155,142.781 201.032,144.918C197.993,143.929 194.824,142.833 191.558,141.53C189.406,140.672 186.947,141.435 185.659,143.36C184.371,145.286 184.606,147.85 186.221,149.511C191.018,154.443 191.216,161.57 192.267,169.036C193.533,178.021 195.483,187.467 202.823,195.778C202.784,196.118 202.779,196.466 202.813,196.817C203.786,206.953 207.043,214.332 211.499,219.705C210.248,233.715 216.205,243.382 225.061,249.684C225.002,273.76 240.032,286.566 252.068,289.535C251.977,290.042 251.965,290.568 252.04,291.095C252.281,292.782 253.139,294.741 254.762,296.786C256.387,298.834 258.903,301.155 261.991,303.626C272.293,311.87 289.842,322.226 295.753,331.548L295.792,331.609C296.663,333.059 298.222,333.961 299.917,333.989Z" style="fill:#281a3b;"/>
            <path d="M259.122,205.333C257.218,207.343 250.858,200.91 253.138,195.258C255.312,193.988 256.782,195.675 258.957,197.145C261.905,199.035 266.929,198.809 267.992,202.069C264.679,202.486 260.723,205.088 259.122,205.333Z" style="fill:#ea8a00;"/>
            <path d="M254.242,210.482C254.51,211.021 254.323,211.676 253.81,211.993C253.297,212.309 252.628,212.183 252.266,211.701C250.766,209.749 249.642,207.442 250.343,205.551C250.97,204.444 254.108,205.97 256.216,207.645C256.629,207.98 256.759,208.555 256.531,209.036C256.302,209.517 255.775,209.779 255.254,209.671C255.139,209.649 255.028,209.626 254.92,209.604C254.689,209.556 254.451,209.644 254.307,209.83C254.162,210.017 254.137,210.269 254.241,210.481C254.242,210.481 254.242,210.481 254.242,210.482Z" style="fill:#ea8a00;"/>
            <path d="M241.641,192.767C241.667,192.611 241.778,192.483 241.929,192.436C242.439,192.558 243.256,193.658 244.358,195.212C245.037,196.146 244.995,197.422 244.255,198.309C243.515,199.195 242.266,199.465 241.226,198.963C238.586,197.784 235.93,196.421 233.707,194.81C233.104,194.373 241.091,195.504 241.641,192.767Z" style="fill:#e53a00;"/>
            <path d="M249.728,257.081C247.874,256.711 245.994,257.587 245.085,259.244C244.176,260.901 244.447,262.957 245.755,264.322C246.83,265.44 248.018,266.435 249.343,267.302C251.493,268.687 254.145,269.053 256.59,268.301C259.035,267.55 261.024,265.757 262.025,263.404C262.034,263.384 262.042,263.364 262.05,263.344C262.535,262.208 262.476,260.912 261.891,259.824C261.305,258.736 260.255,257.974 259.039,257.753C256.491,257.712 253.289,257.595 249.728,257.081Z" style="fill:#e53a00;"/>
            <path d="M254.808,230.562C252.574,230.71 250.741,232.387 250.395,234.6C250.049,236.812 251.282,238.969 253.364,239.793C253.395,239.785 253.42,239.795 253.444,239.805C255.086,240.448 256.952,240.062 258.203,238.82C259.455,237.577 259.855,235.714 259.224,234.068C258.386,231.787 257.999,230.322 257.231,230.383C256.408,230.449 255.601,230.509 254.808,230.562Z" style="fill:#e53a00;"/>
            <path d="M244.435,206.559C242.642,206.384 241.033,207.663 240.801,209.45C240.568,211.237 241.796,212.886 243.574,213.176C243.589,213.177 243.604,213.179 243.619,213.182C244.992,213.402 246.368,212.809 247.15,211.659C247.931,210.509 247.976,209.011 247.266,207.816C247.2,207.7 247.131,207.584 247.063,207.468C246.755,206.942 245.829,206.687 244.435,206.559Z" style="fill:#e53a00;"/>
            <path d="M257.725,277.808C258.166,275.466 256.888,273.139 254.676,272.253C253.965,271.96 253.386,271.7 253.132,271.585C253.041,271.544 252.942,271.522 252.841,271.522C246.315,271.495 241.878,269.056 238.578,265.307C238.353,265.043 238.359,264.653 238.591,264.396C238.824,264.138 239.211,264.094 239.496,264.291C240.79,265.185 242.144,265.954 243.585,266.551C243.9,266.672 244.257,266.552 244.435,266.265C244.612,265.978 244.56,265.605 244.31,265.377C241.95,263.212 240.246,260.685 239.432,257.778C238.792,255.503 237.231,253.599 235.125,252.526C235.113,252.551 235.113,252.551 235.113,252.551C233.94,251.967 232.541,252.078 231.475,252.839C230.409,253.6 229.851,254.888 230.023,256.187C232.061,272.065 241.895,281.351 250.711,284.404C252.12,284.894 253.674,284.728 254.948,283.95C256.221,283.173 257.079,281.866 257.285,280.388C257.403,279.592 257.548,278.726 257.725,277.808ZM265.461,244.175C265.216,243.92 264.869,243.788 264.516,243.815C258.093,244.188 245.011,239.851 240.815,231.228C240.637,230.853 240.275,230.599 239.862,230.559C232.747,229.868 226.952,227.957 221.39,224.273C220.27,223.543 218.825,223.538 217.701,224.262C216.576,224.985 215.981,226.301 216.181,227.623C218.814,246.578 239.353,253.759 255.028,254.649C255.639,254.678 256.169,254.232 256.246,253.625C256.323,253.019 255.921,252.455 255.323,252.33C249.477,251.322 244.582,249.848 240.525,248.025C240.011,247.735 239.803,247.101 240.045,246.563C240.287,246.024 240.899,245.759 241.457,245.95C250.77,249.105 262.373,251.255 269.317,249.879C269.756,249.763 270.088,249.404 270.169,248.957C270.25,248.51 270.065,248.056 269.694,247.794C268.041,246.613 266.644,245.396 265.461,244.175ZM252.853,215.579C252.633,215.33 252.285,215.237 251.97,215.343C245.944,217.18 232.019,213.683 225.841,205.704C225.716,205.541 225.534,205.431 225.332,205.395C221.009,204.608 216.557,203.203 212.502,200.674C211.578,200.104 210.4,200.151 209.526,200.795C208.651,201.439 208.256,202.55 208.527,203.601C214.547,227.875 237.846,229.52 251.991,228.151C252.394,228.108 252.706,227.778 252.726,227.374C252.746,226.969 252.469,226.61 252.072,226.527C248.35,225.747 243.29,224.563 239.555,223.187C239.156,223.032 238.943,222.597 239.066,222.187C239.189,221.777 239.607,221.531 240.025,221.622C246.86,223.107 255.588,223.786 256.416,219.512C256.485,219.158 256.311,218.8 255.989,218.636C255.29,218.142 254.173,217.089 252.853,215.579ZM217.187,156.271C216.664,155.952 215.996,155.995 215.518,156.378C215.04,156.761 214.852,157.403 215.049,157.984C217.078,163.786 211.983,169.098 208.292,174.281C208.109,174.538 208.015,174.848 208.024,175.163C208.308,184.501 213.411,193.287 221.618,201.719C221.81,201.916 222.055,202.056 222.324,202.12C226.96,203.211 231.97,203.506 236.982,202.954C237.626,202.876 238.139,202.38 238.239,201.74C238.339,201.099 238.002,200.47 237.412,200.2C229.194,196.466 223.662,192.181 219.939,188.126C219.42,187.556 219.436,186.68 219.976,186.129C220.515,185.579 221.391,185.546 221.971,186.054C229.28,192.42 237.752,195.142 238.736,188.708C238.847,188.052 238.493,187.405 237.88,187.143C235.46,186.087 229.876,182.556 230.62,170.018C230.837,166.36 224.996,160.993 217.187,156.271Z" style="fill:#ffb81f;"/>
            <path d="M232.266,165.803C232.258,165.828 232.247,165.852 232.234,165.875C231.871,166.373 231.132,165.566 230.135,164.206C229.461,163.318 229.465,162.089 230.145,161.205C230.824,160.321 232.011,160.001 233.043,160.424C233.038,160.435 233.038,160.435 233.038,160.435C233.576,160.663 233.967,161.141 234.085,161.713C234.203,162.286 234.032,162.879 233.628,163.301C233.018,163.914 232.605,164.735 232.266,165.803Z" style="fill:#ffe685;"/>
            <path d="M260.06,164.925C261.703,165.32 262.878,166.766 262.929,168.455C262.98,170.143 261.895,171.658 260.279,172.152C260.107,172.141 259.948,172.172 259.792,172.204C257.236,172.723 254.589,172.584 252.102,171.799C251.297,171.543 250.453,171.317 249.579,171.115C249.016,170.96 248.419,171.197 248.114,171.694C247.81,172.192 247.871,172.831 248.265,173.261C249.046,174.05 249.509,174.942 249.615,175.949C249.622,176.224 249.471,176.48 249.225,176.605C248.98,176.73 248.684,176.703 248.466,176.535C248.377,176.512 248.308,176.466 248.239,176.42C247.778,176.093 247.145,176.167 246.771,176.59C246.398,177.014 246.404,177.651 246.786,178.067C247.094,178.406 247.382,178.749 247.637,179.109C248.969,181.024 248.547,183.649 246.683,185.05C244.819,186.451 242.18,186.127 240.711,184.316C237.959,181.011 235.171,177.103 233.916,169.62C233.802,164.922 236.261,162.435 241.565,161.818C243.463,161.597 252.353,163.103 260.06,164.925Z" style="fill:#ea8a00;"/>
            <path d="M286.972,185.019C291.889,187.793 285.277,195.039 284.562,194.834C283.616,194.561 283.046,191.774 278.455,190.291C272.886,188.493 266.516,184.399 264.245,182.871C263.687,182.489 262.978,182.406 262.347,182.648C259.649,183.679 257.909,184.956 257.102,186.476C256.877,186.925 256.372,187.161 255.883,187.045C255.394,186.93 255.049,186.493 255.049,185.991C255.042,184.64 255.63,183.264 256.851,181.862C257.204,181.46 257.201,180.858 256.844,180.46C256.487,180.061 255.889,179.992 255.451,180.299C254.781,180.773 254.197,181.287 253.742,181.855C253.271,182.492 252.407,182.693 251.704,182.329C251,181.966 250.665,181.145 250.911,180.393C251.471,179.095 252.624,177.849 254.474,176.755C260.329,173.308 267.632,173.476 273.322,177.189C278.982,180.397 286.044,184.265 286.972,185.019Z" style="fill:#ffb81f;"/>
            <path d="M205.638,146.313C204.835,142.648 211.927,142.855 212.852,138.964C212.971,139.013 213.088,139.063 213.203,139.115C214.566,141.231 214.377,143.991 212.739,145.902C211.1,147.813 208.4,148.42 206.101,147.396C205.876,147.059 205.722,146.701 205.638,146.313Z" style="fill:#e53a00;"/>
            <path d="M278.281,195.666C277.605,195.19 274.955,193.778 273.74,193.778C272.078,193.778 270.728,194.644 270.728,195.71C270.728,196.777 272.078,197.643 273.74,197.643C274.106,197.643 274.456,197.601 274.781,197.524C274.97,197.477 275.17,197.555 275.255,197.709C275.34,197.863 275.284,198.047 275.123,198.145C274.11,198.763 272.555,198.906 271.667,198.935C271.518,198.939 271.382,199.013 271.313,199.127C271.244,199.242 271.252,199.381 271.334,199.489C272.165,200.334 273.81,200.743 274.907,200.612C275.612,200.528 282.983,197.963 278.281,195.666Z" style="fill:#fff;"/>
            <path d="M265.857,196.286C265.927,196.483 265.841,196.697 265.644,196.812C265.446,196.927 265.185,196.916 265.001,196.785C263.283,195.606 262.566,193.413 263.124,191.014C263.16,190.86 263.281,190.732 263.448,190.669C264.107,190.64 265.823,190.738 267.06,191.21C267.216,191.285 267.318,191.422 267.334,191.575C267.35,191.729 267.277,191.88 267.139,191.977C266.203,192.776 265.27,194.674 265.857,196.286Z" style="fill:#fff;"/>
            <path d="M209.731,152.392C209.605,152.255 209.453,152.144 209.285,152.064C203.517,149.342 197.451,147.238 192.297,146.45C191.729,146.385 191.176,146.66 190.885,147.152C190.594,147.644 190.619,148.261 190.948,148.728C198.792,160.423 192.666,179.389 206.818,193.849C207.403,194.446 208.019,195.016 208.665,195.558C209.205,196.021 210,196.025 210.544,195.568C211.088,195.111 211.222,194.328 210.86,193.716C207.235,187.635 205.16,181.377 205.138,174.891C205.138,174.742 205.16,174.593 205.205,174.451C207.453,167.508 218.6,161.979 209.731,152.392Z" style="fill:#e53a00;"/>
            <path d="M231.674,256.673C231.534,256.083 231.743,255.465 232.212,255.081C232.681,254.697 233.328,254.614 233.879,254.866C235.027,255.415 236.327,256.013 237.39,256.44C237.808,256.599 238.14,256.928 238.303,257.344C238.346,257.457 238.392,257.569 238.44,257.68C238.654,258.194 238.583,258.782 238.252,259.23C237.922,259.677 237.381,259.919 236.827,259.866C235.744,259.772 234.699,259.844 233.907,259.95C233.12,260.057 232.375,259.565 232.164,258.799C231.996,258.125 231.828,257.384 231.674,256.673ZM240.609,240.147C240.609,239.386 240.974,238.672 241.591,238.227C242.207,237.783 243,237.661 243.722,237.901C246.244,239.415 249.651,241.403 251.257,242.142C253.17,243.022 256.054,244.052 258.928,245.044C259.738,245.403 260.17,246.294 259.951,247.152C259.733,248.01 258.927,248.586 258.045,248.514C253.725,247.929 249.079,246.871 244.753,245.564C243.429,245.16 242.241,244.436 241.285,243.47C240.867,243.034 240.633,242.453 240.633,241.849C240.609,241.391 240.609,240.789 240.609,240.147ZM240.616,242.774C240.614,242.773 240.612,242.773 240.61,242.774C240.608,242.776 240.608,242.778 240.609,242.78C240.609,242.781 240.609,242.782 240.609,242.782C240.597,242.797 240.598,242.818 240.61,242.832C240.622,242.846 240.642,242.85 240.659,242.841C240.642,242.821 240.632,242.802 240.616,242.774ZM235.766,237.354C235.766,238.067 235.428,238.739 234.855,239.164C234.282,239.589 233.542,239.717 232.859,239.51C229.402,238.409 225.873,236.965 223.308,235.868C221.096,235.523 219.29,233.916 218.69,231.759C218.628,231.688 218.606,231.606 218.583,231.523C218.404,230.868 218.657,230.172 219.214,229.785C219.772,229.398 220.513,229.404 221.064,229.8C224.986,232.603 229.477,234.285 234.022,235.23C235.034,235.433 235.761,236.322 235.762,237.354C235.766,237.354 235.766,237.354 235.766,237.354ZM229.879,215.223C229.517,214.525 229.652,213.672 230.212,213.121C230.773,212.57 231.627,212.448 232.319,212.822C232.366,212.848 232.414,212.874 232.461,212.9C235.393,214.491 238.588,215.667 241.637,216.378C245.684,217.321 249.472,217.435 252.053,216.747C253.237,218.077 254.259,219.042 254.969,219.588C254.581,220.541 253.429,220.931 252.021,221.177C248.816,221.736 244.242,221.133 240.316,220.28C239.721,220.151 236.493,220.304 233.015,219.731C232.464,219.635 231.989,219.288 231.732,218.791C231.301,217.966 230.588,216.591 229.879,215.223ZM227.582,214.124C227.911,214.758 227.832,215.527 227.38,216.08C226.929,216.634 226.191,216.866 225.504,216.671C222.988,215.941 220.484,214.965 218.089,213.647C218.01,213.603 217.947,213.536 217.909,213.455C216.658,211.177 217.022,211.557 216.234,208.376C216.233,208.372 216.232,208.368 216.23,208.364C216.099,207.855 216.291,207.317 216.714,207.006C217.137,206.694 217.707,206.671 218.154,206.947C219.06,207.512 223.183,207.42 224.779,208.931C224.923,209.068 225.043,209.228 225.134,209.404C225.51,210.126 226.6,212.23 227.582,214.124ZM218.223,195.85C218.312,195.29 218.57,194.752 218.996,194.318C220.045,193.248 221.748,193.183 222.872,194.168C226.324,197.175 230.031,199.353 233.011,199.988C233.407,200.072 233.788,200.132 234.148,200.159C234.148,200.159 234.148,200.159 234.148,200.159C234.445,200.308 234.6,200.643 234.522,200.966C234.444,201.29 234.154,201.517 233.822,201.516C230.587,201.543 225.53,201.464 222.642,200.785C222.626,200.781 222.612,200.773 222.601,200.761C221.02,199.137 219.556,197.5 218.223,195.85ZM224.788,166.163C224.892,167.086 224.325,167.952 223.437,168.225C222.549,168.498 221.593,168.1 221.161,167.278C219.744,164.581 218.226,161.692 216.928,159.223C216.692,158.774 216.822,158.22 217.232,157.921C217.642,157.623 218.209,157.672 218.563,158.035C221.09,160.626 223.776,163.382 224.421,164.042C224.514,164.139 224.574,164.263 224.589,164.397C224.623,164.705 224.695,165.34 224.788,166.163Z" style="fill:#ffe685;"/>
            <path d="M239.215,271.938C238.553,271.234 237.457,271.166 236.713,271.782C235.969,272.399 235.832,273.488 236.401,274.27C240.132,279.507 245.206,283.619 250.711,284.404C252.188,284.614 253.674,284.728 254.948,283.95C256.221,283.173 257.079,281.866 257.285,280.388C257.403,279.592 257.548,278.726 257.725,277.808C257.915,276.797 257.785,275.788 257.398,274.897C257.358,275.145 257.32,275.387 257.285,275.623C257.079,277.1 256.221,278.407 254.948,279.185C253.674,279.963 252.12,280.129 250.711,279.638C246.825,278.293 242.742,275.736 239.215,271.938ZM227.509,241.593C226.714,241.04 225.625,241.202 225.025,241.963C224.425,242.724 224.522,243.82 225.246,244.464C232.335,250.462 243.084,254.248 255.028,254.649C255.64,254.67 256.169,254.232 256.246,253.625C256.323,253.019 255.921,252.455 255.323,252.33C249.477,251.322 244.582,249.848 240.525,248.025C240.349,247.926 233.733,245.814 227.509,241.593ZM220.269,216.995C219.423,216.372 218.237,216.52 217.569,217.331C216.902,218.142 216.984,219.334 217.758,220.045C224.832,226.217 236.237,229.985 251.991,228.151C252.393,228.104 252.706,227.778 252.726,227.374C252.746,226.969 252.469,226.61 252.072,226.527C248.716,225.823 244.271,224.792 240.691,223.586C233.763,223.107 226.359,221.352 220.269,216.995ZM232.4,187.344C234.378,187.822 236.068,187.704 237.219,186.826C237.457,186.951 237.68,187.056 237.88,187.143C238.493,187.405 238.847,188.052 238.736,188.708C238.051,193.187 233.736,193.229 228.712,190.693C225.601,188.657 223.078,186.561 221.032,184.504C218.071,182.442 215.566,178.99 215.927,175.803C215.985,175.372 216.282,175.011 216.694,174.872C218.768,174.302 221.526,173.21 223.113,179.776C223.114,179.78 223.115,179.785 223.116,179.789C223.336,180.678 224.186,181.263 225.095,181.151C226.004,181.038 226.686,180.265 226.683,179.349C226.67,179.141 226.672,178.937 226.681,178.737C226.762,176.872 228.451,177.126 228.463,177.649C228.508,179.593 230.468,185.251 232.4,187.344ZM211.352,180.361C211.057,179.894 210.466,179.713 209.961,179.934C209.455,180.155 209.187,180.712 209.329,181.245C210.141,184.166 211.686,187.442 214.701,190.912C215.034,191.298 215.588,191.408 216.044,191.179C216.499,190.95 216.741,190.44 216.629,189.942C215.827,186.512 213.461,183.698 211.352,180.361Z" style="fill:#ea8a00;"/>
            <path d="M230.069,240.678C231.719,240.431 239.181,243.198 238.684,244.642C238.539,245.064 237.951,245.06 237.567,245.004C234.058,244.49 228.595,240.899 230.069,240.678Z" style="fill:#ea8a00;"/>
            <path d="M256.288,198.187C256.42,197.894 256.696,197.693 257.015,197.657C257.335,197.622 257.649,197.758 257.841,198.015C258.607,198.997 259.655,199.921 260.855,200.803C261.18,201.046 261.305,201.476 261.159,201.856C261.014,202.236 260.635,202.474 260.23,202.439C258.845,202.298 257.553,202.414 256.372,202.817C256.068,202.923 255.731,202.859 255.487,202.65C255.243,202.441 255.129,202.117 255.188,201.801C255.43,200.496 255.805,199.297 256.288,198.187Z" style="fill:#ffb81f;"/>
            <path d="M294.265,223.763C294.294,223.779 294.321,223.797 294.347,223.817C297.258,226.14 296.799,229.443 293.981,229.631C279.145,230.622 269.568,234.018 267.06,240.427C266.975,240.645 266.948,240.879 266.732,240.968C266.516,241.058 266.267,240.997 266.117,240.818C261.862,234.684 260.006,225.3 259.46,221.991C259.428,221.785 259.518,221.579 259.691,221.463C259.865,221.346 260.089,221.34 260.268,221.448C261.259,221.983 262.474,222.253 263.905,222.272C264.147,222.279 264.363,222.122 264.43,221.889C264.497,221.657 264.398,221.408 264.189,221.286C262.081,220.076 260.727,218.671 259.93,217.119C259.88,217.02 259.861,216.908 259.878,216.797C259.954,216.269 260.198,214.604 260.358,213.511C260.387,213.316 260.52,213.151 260.705,213.083C260.891,213.014 261.099,213.052 261.248,213.182C262.183,213.974 263.231,214.653 264.396,215.215C264.636,215.333 264.926,215.254 265.073,215.031C265.221,214.808 265.18,214.51 264.979,214.335C263.502,213.069 262.336,211.616 261.498,209.966C261.43,209.831 261.421,209.673 261.475,209.532C261.633,209.112 261.979,208.198 262.153,207.74C262.217,207.57 262.363,207.444 262.541,207.404C264.332,207.027 274.121,205.174 279.263,208.642C279.267,208.644 279.27,208.647 279.274,208.649C282.389,210.644 285.222,210.836 287.803,213.217C289.059,214.375 289.662,217.36 290.462,219.482C290.524,219.632 290.514,219.803 290.436,219.946C290.358,220.089 290.22,220.189 290.059,220.218C287.096,220.814 282.669,222.296 278.971,224.337C278.742,224.481 278.657,224.775 278.775,225.019C278.892,225.263 279.174,225.381 279.43,225.291C286.702,222.502 290.876,221.955 294.265,223.763ZM272.312,224.598C272.063,224.68 271.792,224.653 271.592,224.527C271.391,224.401 271.291,224.192 271.325,223.974C271.364,223.717 271.407,223.441 271.447,223.181C271.482,222.956 271.655,222.754 271.901,222.648C272.148,222.542 272.433,222.549 272.651,222.666C272.929,222.814 273.233,222.976 273.52,223.13C273.754,223.255 273.873,223.487 273.828,223.728C273.782,223.969 273.579,224.178 273.304,224.27C272.974,224.379 272.627,224.493 272.312,224.598ZM267.222,223.784C266.872,223.821 266.522,223.723 266.293,223.525C266.064,223.327 265.989,223.055 266.093,222.805C266.215,222.511 266.347,222.195 266.471,221.897C266.578,221.639 266.86,221.442 267.214,221.377C267.568,221.312 267.941,221.39 268.197,221.581C268.522,221.824 268.877,222.09 269.214,222.342C269.488,222.547 269.581,222.85 269.455,223.124C269.329,223.398 269.005,223.597 268.617,223.637C268.153,223.686 267.666,223.737 267.222,223.784Z" style="fill:#ffb81f;"/>
            <path d="M288.225,220.58C287.448,220.82 286.623,220.389 286.374,219.615C286.125,218.841 286.545,218.01 287.316,217.752C287.359,217.739 287.402,217.725 287.445,217.711C287.842,217.573 288.281,217.62 288.641,217.84C289,218.059 289.242,218.429 289.301,218.846C289.26,219.148 289.254,219.437 289.195,219.726C289.114,220.082 288.845,220.366 288.494,220.465C288.41,220.528 288.317,220.554 288.225,220.58Z" style="fill:#ea8a00;"/>
            <path d="M238.315,207.595C237.894,207.504 237.449,207.677 237.224,208.018C236.998,208.36 237.046,208.788 237.342,209.068C238.438,210.11 240.605,210.782 244.337,210.916C244.743,210.931 245.125,210.718 245.296,210.381C245.566,209.855 245.68,209.374 245.651,208.933C245.622,208.479 245.212,208.129 244.706,208.127C241.957,208.123 239.946,207.912 238.315,207.595Z" style="fill:#ff6b38;"/>
            <path d="M249.07,232.424C248.65,232.333 248.205,232.506 247.979,232.847C247.753,233.189 247.802,233.617 248.098,233.897C249.194,234.939 251.904,236.699 255.636,236.833C256.042,236.848 256.424,236.635 256.595,236.298C256.865,235.772 256.771,233.198 256.741,232.757C256.712,232.303 256.287,231.829 255.796,231.952C252.796,232.701 250.702,232.741 249.07,232.424Z" style="fill:#ff6b38;"/>
            <path d="M252.558,259.105C252.151,258.966 251.689,259.085 251.425,259.397C251.16,259.71 250.616,260.606 251.419,261.383C252.505,262.436 254.87,263.684 258.56,264.256C258.962,264.319 259.366,264.152 259.575,263.838C259.905,263.347 260.114,260.78 260.137,260.339C260.161,259.884 259.795,259.363 259.293,259.427C256.226,259.818 254.141,259.612 252.558,259.105Z" style="fill:#ff6b38;"/>
            <path d="M247.263,257.528C248.405,257.762 249.196,258.615 249.029,259.432C248.862,260.249 247.799,260.723 246.657,260.489C245.515,260.256 244.724,259.403 244.891,258.586C245.058,257.769 246.121,257.295 247.263,257.528Z" style="fill:#ff6b38;"/>
            <path d="M235.439,261.512C236.58,261.746 237.372,262.599 237.205,263.416C237.038,264.233 235.975,264.707 234.833,264.473C233.691,264.24 232.9,263.387 233.067,262.57C233.234,261.753 234.297,261.279 235.439,261.512Z" style="fill:#ffe685;"/>
            <path d="M220.513,225.075C221.986,225.377 223.008,226.474 222.793,227.524C222.579,228.574 221.208,229.181 219.735,228.88C218.261,228.579 217.239,227.482 217.454,226.432C217.669,225.382 219.039,224.774 220.513,225.075Z" style="fill:#ffe685;"/>
            <path d="M213.375,202.447C214.46,203.489 214.738,204.962 213.996,205.735C213.254,206.508 211.77,206.29 210.686,205.248C209.601,204.207 209.323,202.734 210.065,201.961C210.807,201.188 212.291,201.406 213.375,202.447Z" style="fill:#ffe685;"/>
            <path d="M253.229,167.657C252.401,167.475 251.877,166.657 252.057,165.829C252.238,165.001 253.055,164.476 253.883,164.655C253.951,164.671 254.018,164.685 254.086,164.7C254.314,164.75 254.507,164.9 254.612,165.108C255.176,166.2 255.087,167.004 254.421,167.567C254.226,167.73 253.966,167.791 253.719,167.732C253.548,167.733 253.387,167.695 253.229,167.657Z" style="fill:#ffb81f;"/>
            <path d="M197.069,159.796C196.587,159.819 196.214,159.355 196.189,158.871C196.164,158.388 196.491,157.937 196.97,157.86C200.04,157.367 202.73,158.288 204.636,159.784C205.189,160.245 205.278,161.062 204.837,161.632C204.396,162.203 203.582,162.321 202.996,161.901C201.085,160.537 198.72,159.719 197.069,159.796Z" style="fill:#ff6b38;"/>
            <path d="M253.314,177.528C256.967,174.771 269.665,187.01 283.738,189.814C284.015,189.87 284.173,190.175 284.241,190.449C284.672,192.184 284.698,193.603 284.347,194.727C283.503,194.138 282.691,191.659 278.455,190.291C272.401,188.336 265.399,183.667 263.748,182.533C263.519,182.374 263.227,182.333 262.964,182.425C259.502,183.634 257.465,185.213 256.81,187.15C256.68,187.52 256.318,187.756 255.927,187.726C255.536,187.695 255.214,187.405 255.144,187.019C254.72,185.046 255.532,183.024 257.739,180.943C258.044,180.642 258.082,180.164 257.83,179.818C257.579,179.471 257.112,179.361 256.732,179.558C254.553,180.689 252.969,182.203 252.71,184.189C252.648,184.555 252.351,184.837 251.981,184.878C251.611,184.919 251.259,184.709 251.119,184.365C250.017,182.01 250.615,179.565 253.314,177.528Z" style="fill:#ea8a00;"/>
            <path d="M255.516,176.193C256.173,175.868 256.902,175.559 257.702,175.269C262.842,173.416 268.553,174.081 273.129,177.066C278.815,180.306 286.034,184.256 286.972,185.019C289.673,186.543 288.896,189.415 287.528,191.661C287.92,189.871 280.182,186.025 272.359,182.171C265.804,178.941 261.073,174.686 255.516,176.193Z" style="fill:#ffe685;"/>
            <path d="M270.751,195.472C270.934,194.518 272.203,193.778 273.74,193.778C274.955,193.778 277.605,195.19 278.281,195.666C280.365,196.684 280.078,197.754 279.05,198.638C277.343,196.672 274.423,195.704 270.751,195.472Z" style="fill:#af9fc8;"/>
            <path d="M262.941,192.399C262.954,191.949 263.014,191.486 263.124,191.014C263.16,190.86 263.281,190.732 263.448,190.669C264.107,190.64 265.823,190.738 267.06,191.21C267.216,191.285 267.318,191.422 267.334,191.575C267.35,191.729 267.277,191.88 267.139,191.977C266.695,192.357 266.25,192.984 265.97,193.712C265.493,192.303 264.297,192.187 262.941,192.399Z" style="fill:#af9fc8;"/>
            <path d="M286.694,216.344C286.692,216.345 286.691,216.346 286.689,216.348C282.504,219.449 275.649,218.74 272.701,218.247C271.809,218.09 271.018,217.579 270.509,216.831C269.804,215.802 268.721,214.212 267.673,212.674C266.931,211.584 266.895,210.162 267.58,209.036C268.266,207.91 269.546,207.289 270.855,207.448C278.98,208.462 289.403,214.569 286.694,216.344Z" style="fill:#ffe685;"/>
            <path d="M261.907,227.396C261.777,226.693 262.029,225.973 262.569,225.503C263.109,225.034 263.857,224.885 264.536,225.111C267.185,225.939 270.277,226.302 273.594,226.398C274.5,226.432 275.273,227.062 275.489,227.942C275.706,228.823 275.312,229.74 274.525,230.19C271.808,231.686 269.588,233.539 267.933,235.775C267.511,236.355 266.813,236.666 266.1,236.592C265.387,236.517 264.768,236.069 264.474,235.415C263.263,232.717 262.431,230.044 261.907,227.396Z" style="fill:#ea8a00;"/>
            <path d="M205.335,174.077C203.82,176.08 201.936,185.97 202.62,188.594C203.777,190.395 205.158,192.153 206.818,193.849C207.403,194.446 208.019,195.016 208.665,195.558C209.205,196.021 210,196.025 210.544,195.568C211.088,195.111 211.222,194.328 210.86,193.716C207.235,187.635 205.16,181.377 205.138,174.891C205.138,174.742 205.16,174.593 205.205,174.451C205.246,174.326 205.289,174.201 205.335,174.077Z" style="fill:#a92b00;"/>
            <path d="M190.948,148.728C191.866,150.096 193.24,153.488 199.844,154.61C206.103,155.674 213.007,159.785 208.923,168.339C212.389,163.759 215.896,159.056 209.731,152.392C209.605,152.255 209.453,152.144 209.285,152.064C203.517,149.342 197.451,147.238 192.297,146.45C191.729,146.385 191.176,146.66 190.885,147.152C190.594,147.644 190.619,148.261 190.948,148.728Z" style="fill:#ff6b38;"/>
            <path d="M340.877,205.333C342.782,207.343 349.142,200.91 346.862,195.258C344.687,193.988 343.217,195.675 341.043,197.145C338.095,199.035 333.071,198.809 332.008,202.069C335.321,202.486 339.277,205.088 340.877,205.333Z" style="fill:#ea8a00;"/>
            <path d="M345.758,210.482C345.49,211.021 345.677,211.676 346.19,211.993C346.702,212.309 347.372,212.183 347.734,211.701C349.234,209.749 350.357,207.442 349.657,205.551C349.029,204.444 345.891,205.97 343.784,207.645C343.371,207.98 343.241,208.555 343.469,209.036C343.697,209.517 344.225,209.779 344.746,209.671C344.861,209.649 344.972,209.626 345.08,209.604C345.311,209.556 345.549,209.644 345.693,209.83C345.837,210.017 345.863,210.269 345.758,210.481C345.758,210.481 345.758,210.481 345.758,210.482Z" style="fill:#ea8a00;"/>
            <path d="M358.359,192.767C358.333,192.611 358.222,192.483 358.071,192.436C357.56,192.558 356.744,193.658 355.642,195.212C354.963,196.146 355.005,197.422 355.745,198.309C356.485,199.195 357.733,199.465 358.773,198.963C361.414,197.784 364.07,196.421 366.293,194.81C366.896,194.373 358.909,195.504 358.359,192.767Z" style="fill:#e53a00;"/>
            <path d="M350.272,257.081C352.126,256.711 354.005,257.587 354.915,259.244C355.824,260.901 355.553,262.957 354.245,264.322C353.17,265.44 351.982,266.435 350.657,267.302C348.507,268.687 345.855,269.053 343.41,268.301C340.965,267.55 338.976,265.757 337.974,263.404C337.966,263.384 337.958,263.364 337.95,263.344C337.465,262.208 337.523,260.912 338.109,259.824C338.695,258.736 339.745,257.974 340.96,257.753C343.509,257.712 346.711,257.595 350.272,257.081Z" style="fill:#e53a00;"/>
            <path d="M345.191,230.562C347.426,230.71 349.259,232.387 349.605,234.6C349.951,236.812 348.718,238.969 346.636,239.793C346.604,239.785 346.58,239.795 346.556,239.805C344.914,240.448 343.048,240.062 341.797,238.82C340.545,237.577 340.145,235.714 340.776,234.068C341.614,231.787 342,230.322 342.768,230.383C343.591,230.449 344.399,230.509 345.191,230.562Z" style="fill:#e53a00;"/>
            <path d="M355.565,206.559C357.358,206.384 358.967,207.663 359.199,209.45C359.432,211.237 358.204,212.886 356.426,213.176C356.41,213.177 356.395,213.179 356.38,213.182C355.008,213.402 353.632,212.809 352.85,211.659C352.069,210.509 352.023,209.011 352.734,207.816C352.8,207.7 352.868,207.584 352.937,207.468C353.245,206.942 354.171,206.687 355.565,206.559Z" style="fill:#e53a00;"/>
            <path d="M342.275,277.808C341.834,275.466 343.111,273.139 345.324,272.253C346.035,271.96 346.614,271.7 346.867,271.585C346.959,271.544 347.058,271.522 347.158,271.522C353.685,271.495 358.121,269.056 361.422,265.307C361.647,265.043 361.641,264.653 361.409,264.396C361.176,264.138 360.789,264.094 360.503,264.291C359.21,265.185 357.855,265.954 356.415,266.551C356.1,266.672 355.743,266.552 355.565,266.265C355.387,265.978 355.44,265.605 355.689,265.377C358.05,263.212 359.754,260.685 360.568,257.778C361.208,255.503 362.769,253.599 364.874,252.526C364.887,252.551 364.887,252.551 364.887,252.551C366.06,251.967 367.459,252.078 368.525,252.839C369.591,253.6 370.149,254.888 369.977,256.187C367.939,272.065 358.105,281.351 349.289,284.404C347.88,284.894 346.325,284.728 345.052,283.95C343.779,283.173 342.921,281.866 342.715,280.388C342.597,279.592 342.452,278.726 342.275,277.808ZM334.539,244.175C334.784,243.92 335.131,243.788 335.484,243.815C341.907,244.188 354.989,239.851 359.185,231.228C359.363,230.853 359.725,230.599 360.138,230.559C367.252,229.868 373.048,227.957 378.61,224.273C379.73,223.543 381.175,223.538 382.299,224.262C383.424,224.985 384.019,226.301 383.819,227.623C381.186,246.578 360.647,253.759 344.971,254.649C344.361,254.678 343.831,254.232 343.754,253.625C343.677,253.019 344.078,252.455 344.677,252.33C350.523,251.322 355.418,249.848 359.475,248.025C359.989,247.735 360.197,247.101 359.955,246.563C359.713,246.024 359.101,245.759 358.542,245.95C349.23,249.105 337.627,251.255 330.683,249.879C330.244,249.763 329.911,249.404 329.831,248.957C329.75,248.51 329.935,248.056 330.306,247.794C331.959,246.613 333.356,245.396 334.539,244.175ZM347.147,215.579C347.366,215.33 347.714,215.237 348.029,215.343C354.056,217.18 367.981,213.683 374.159,205.704C374.284,205.541 374.465,205.431 374.668,205.395C378.991,204.608 383.443,203.203 387.498,200.674C388.422,200.104 389.6,200.151 390.474,200.795C391.348,201.439 391.744,202.55 391.473,203.601C385.453,227.875 362.154,229.52 348.009,228.151C347.606,228.108 347.294,227.778 347.274,227.374C347.254,226.969 347.531,226.61 347.927,226.527C351.649,225.747 356.71,224.563 360.444,223.187C360.844,223.032 361.057,222.597 360.934,222.187C360.811,221.777 360.393,221.531 359.975,221.622C353.139,223.107 344.412,223.786 343.583,219.512C343.515,219.158 343.689,218.8 344.011,218.636C344.709,218.142 345.826,217.089 347.147,215.579ZM382.813,156.271C383.336,155.952 384.003,155.995 384.482,156.378C384.96,156.761 385.148,157.403 384.951,157.984C382.921,163.786 388.016,169.098 391.708,174.281C391.89,174.538 391.985,174.848 391.976,175.163C391.692,184.501 386.588,193.287 378.382,201.719C378.189,201.916 377.945,202.056 377.676,202.12C373.039,203.211 368.03,203.506 363.018,202.954C362.374,202.876 361.861,202.38 361.761,201.74C361.66,201.099 361.998,200.47 362.588,200.2C370.806,196.466 376.338,192.181 380.061,188.126C380.58,187.556 380.564,186.68 380.024,186.129C379.484,185.579 378.609,185.546 378.029,186.054C370.72,192.42 362.248,195.142 361.264,188.708C361.153,188.052 361.507,187.405 362.12,187.143C364.54,186.087 370.124,182.556 369.38,170.018C369.163,166.36 375.004,160.993 382.813,156.271Z" style="fill:#ffb81f;"/>
            <path d="M367.734,165.803C367.742,165.828 367.752,165.852 367.766,165.875C368.129,166.373 368.868,165.566 369.865,164.206C370.538,163.318 370.535,162.089 369.855,161.205C369.176,160.321 367.989,160.001 366.957,160.424C366.962,160.435 366.962,160.435 366.962,160.435C366.424,160.663 366.033,161.141 365.915,161.713C365.797,162.286 365.968,162.879 366.372,163.301C366.982,163.914 367.395,164.735 367.734,165.803Z" style="fill:#ffe685;"/>
            <path d="M339.939,164.925C338.297,165.32 337.122,166.766 337.07,168.455C337.019,170.143 338.105,171.658 339.721,172.152C339.893,172.141 340.052,172.172 340.208,172.204C342.764,172.723 345.41,172.584 347.898,171.799C348.703,171.543 349.547,171.317 350.421,171.115C350.984,170.96 351.581,171.197 351.885,171.694C352.19,172.192 352.128,172.831 351.734,173.261C350.954,174.05 350.491,174.942 350.385,175.949C350.377,176.224 350.529,176.48 350.775,176.605C351.02,176.73 351.316,176.703 351.534,176.535C351.622,176.512 351.691,176.466 351.761,176.42C352.222,176.093 352.855,176.167 353.228,176.59C353.602,177.014 353.596,177.651 353.214,178.067C352.906,178.406 352.618,178.749 352.363,179.109C351.031,181.024 351.453,183.649 353.317,185.05C355.181,186.451 357.82,186.127 359.289,184.316C362.041,181.011 364.829,177.103 366.084,169.62C366.198,164.922 363.738,162.435 358.435,161.818C356.536,161.597 347.647,163.103 339.939,164.925Z" style="fill:#ea8a00;"/>
            <path d="M313.028,185.019C308.11,187.793 314.723,195.039 315.438,194.834C316.384,194.561 316.953,191.774 321.545,190.291C327.113,188.493 333.484,184.399 335.755,182.871C336.312,182.489 337.022,182.406 337.653,182.648C340.351,183.679 342.091,184.956 342.898,186.476C343.123,186.925 343.627,187.161 344.116,187.045C344.606,186.93 344.951,186.493 344.951,185.991C344.958,184.64 344.37,183.264 343.148,181.862C342.796,181.46 342.799,180.858 343.156,180.46C343.513,180.061 344.111,179.992 344.549,180.299C345.219,180.773 345.803,181.287 346.258,181.855C346.729,182.492 347.592,182.693 348.296,182.329C348.999,181.966 349.335,181.145 349.088,180.393C348.528,179.095 347.375,177.849 345.526,176.755C339.671,173.308 332.368,173.476 326.678,177.189C321.018,180.397 313.955,184.265 313.028,185.019Z" style="fill:#ffb81f;"/>
            <path d="M386.733,147.959C387.535,144.294 376.231,144.692 375.306,140.801C374.727,141.404 374.261,142.181 373.883,143.069C372.747,145.687 373.416,148.74 375.545,150.643C377.673,152.546 380.782,152.87 383.257,151.448C385.232,150.368 386.428,149.349 386.733,147.959Z" style="fill:#e53a00;"/>
            <path d="M321.719,195.666C322.395,195.19 325.045,193.778 326.26,193.778C327.922,193.778 329.272,194.644 329.272,195.71C329.272,196.777 327.922,197.643 326.26,197.643C325.894,197.643 325.544,197.601 325.219,197.524C325.03,197.477 324.83,197.555 324.745,197.709C324.66,197.863 324.716,198.047 324.877,198.145C325.89,198.763 327.445,198.906 328.333,198.935C328.482,198.939 328.617,199.013 328.687,199.127C328.756,199.242 328.748,199.381 328.666,199.489C327.835,200.334 326.19,200.743 325.093,200.612C324.388,200.528 317.017,197.963 321.719,195.666Z" style="fill:#fff;"/>
            <path d="M334.143,196.286C334.072,196.483 334.159,196.697 334.356,196.812C334.553,196.927 334.815,196.916 334.998,196.785C336.717,195.606 337.434,193.413 336.876,191.014C336.839,190.86 336.719,190.732 336.552,190.669C335.893,190.64 334.177,190.738 332.94,191.21C332.784,191.285 332.682,191.422 332.666,191.575C332.65,191.729 332.723,191.88 332.861,191.977C333.796,192.776 334.73,194.674 334.143,196.286Z" style="fill:#fff;"/>
            <path d="M390.269,152.392C390.395,152.255 390.547,152.144 390.715,152.064C396.482,149.342 402.549,147.238 407.703,146.45C408.271,146.385 408.824,146.66 409.115,147.152C409.406,147.644 409.381,148.261 409.051,148.728C401.208,160.423 407.333,179.389 393.182,193.849C392.597,194.446 391.981,195.016 391.335,195.558C390.795,196.021 390,196.025 389.456,195.568C388.911,195.111 388.778,194.328 389.14,193.716C392.765,187.635 394.839,181.377 394.862,174.891C394.862,174.742 394.839,174.593 394.795,174.451C392.547,167.508 381.4,161.979 390.269,152.392Z" style="fill:#e53a00;"/>
            <path d="M368.326,256.673C368.466,256.083 368.256,255.465 367.787,255.081C367.318,254.697 366.672,254.614 366.12,254.866C364.973,255.415 363.673,256.013 362.61,256.44C362.192,256.599 361.86,256.928 361.697,257.344C361.654,257.457 361.607,257.569 361.56,257.68C361.346,258.194 361.417,258.782 361.748,259.23C362.078,259.677 362.619,259.919 363.173,259.866C364.256,259.772 365.301,259.844 366.093,259.95C366.88,260.057 367.625,259.565 367.836,258.799C368.004,258.125 368.172,257.384 368.326,256.673ZM359.391,240.147C359.391,239.386 359.026,238.672 358.409,238.227C357.792,237.783 357,237.661 356.278,237.901C353.756,239.415 350.348,241.403 348.743,242.142C346.83,243.022 343.946,244.052 341.071,245.044C340.262,245.403 339.83,246.294 340.048,247.152C340.267,248.01 341.073,248.586 341.955,248.514C346.274,247.929 350.921,246.871 355.247,245.564C356.57,245.16 357.759,244.436 358.715,243.47C359.133,243.034 359.366,242.453 359.366,241.849C359.391,241.391 359.391,240.789 359.391,240.147ZM359.384,242.774C359.385,242.773 359.388,242.773 359.39,242.774C359.392,242.776 359.392,242.778 359.391,242.78C359.391,242.781 359.391,242.782 359.391,242.782C359.403,242.797 359.402,242.818 359.39,242.832C359.378,242.846 359.358,242.85 359.341,242.841C359.358,242.821 359.368,242.802 359.384,242.774ZM364.234,237.354C364.234,238.067 364.572,238.739 365.145,239.164C365.718,239.589 366.458,239.717 367.141,239.51C370.598,238.409 374.127,236.965 376.692,235.868C378.904,235.523 380.71,233.916 381.31,231.759C381.372,231.688 381.394,231.606 381.417,231.523C381.596,230.868 381.343,230.172 380.785,229.785C380.228,229.398 379.487,229.404 378.936,229.8C375.013,232.603 370.523,234.285 365.978,235.23C364.966,235.433 364.238,236.322 364.238,237.354C364.234,237.354 364.234,237.354 364.234,237.354ZM370.121,215.223C370.483,214.525 370.348,213.672 369.787,213.121C369.227,212.57 368.373,212.448 367.681,212.822C367.634,212.848 367.586,212.874 367.538,212.9C364.606,214.491 361.412,215.667 358.363,216.378C354.316,217.321 350.528,217.435 347.947,216.747C346.763,218.077 345.741,219.042 345.031,219.588C345.419,220.541 346.571,220.931 347.978,221.177C351.183,221.736 355.758,221.133 359.683,220.28C360.279,220.151 363.507,220.304 366.985,219.731C367.536,219.635 368.011,219.288 368.268,218.791C368.699,217.966 369.412,216.591 370.121,215.223ZM372.418,214.124C372.089,214.758 372.168,215.527 372.62,216.08C373.071,216.634 373.809,216.866 374.496,216.671C377.012,215.941 379.516,214.965 381.911,213.647C381.99,213.603 382.053,213.536 382.091,213.455C383.342,211.177 382.977,211.557 383.766,208.376C383.767,208.372 383.768,208.368 383.769,208.364C383.901,207.855 383.709,207.317 383.286,207.006C382.863,206.694 382.293,206.671 381.846,206.947C380.939,207.512 376.817,207.42 375.221,208.931C375.077,209.068 374.957,209.228 374.866,209.404C374.49,210.126 373.399,212.23 372.418,214.124ZM381.777,195.85C381.688,195.29 381.43,194.752 381.004,194.318C379.954,193.248 378.252,193.183 377.128,194.168C373.676,197.175 369.968,199.353 366.989,199.988C366.593,200.072 366.212,200.132 365.852,200.159C365.852,200.159 365.852,200.159 365.852,200.159C365.555,200.308 365.4,200.643 365.478,200.966C365.555,201.29 365.846,201.517 366.178,201.516C369.413,201.543 374.469,201.464 377.358,200.785C377.373,200.781 377.388,200.773 377.399,200.761C378.98,199.137 380.444,197.5 381.777,195.85ZM375.212,166.163C375.107,167.086 375.675,167.952 376.563,168.225C377.45,168.498 378.406,168.1 378.838,167.278C380.255,164.581 381.774,161.692 383.072,159.223C383.308,158.774 383.178,158.22 382.768,157.921C382.358,157.623 381.791,157.672 381.437,158.035C378.91,160.626 376.223,163.382 375.579,164.042C375.485,164.139 375.426,164.263 375.411,164.397C375.376,164.705 375.305,165.34 375.212,166.163Z" style="fill:#ffe685;"/>
            <path d="M360.785,271.938C361.447,271.234 362.542,271.166 363.287,271.782C364.031,272.399 364.168,273.488 363.599,274.27C359.868,279.507 354.794,283.619 349.289,284.404C347.812,284.614 346.325,284.728 345.052,283.95C343.779,283.173 342.921,281.866 342.715,280.388C342.597,279.592 342.452,278.726 342.275,277.808C342.085,276.797 342.215,275.788 342.602,274.897C342.642,275.145 342.68,275.387 342.715,275.623C342.921,277.1 343.779,278.407 345.052,279.185C346.325,279.963 347.88,280.129 349.289,279.638C353.175,278.293 357.258,275.736 360.785,271.938ZM372.491,241.593C373.286,241.04 374.375,241.202 374.975,241.963C375.575,242.724 375.478,243.82 374.754,244.464C367.665,250.462 356.916,254.248 344.971,254.649C344.36,254.67 343.831,254.232 343.754,253.625C343.677,253.019 344.078,252.455 344.677,252.33C350.523,251.322 355.418,249.848 359.475,248.025C359.651,247.926 366.267,245.814 372.491,241.593ZM379.731,216.995C380.577,216.372 381.763,216.52 382.43,217.331C383.098,218.142 383.016,219.334 382.242,220.045C375.168,226.217 363.763,229.985 348.009,228.151C347.607,228.104 347.294,227.778 347.274,227.374C347.254,226.969 347.531,226.61 347.927,226.527C351.284,225.823 355.729,224.792 359.309,223.586C366.237,223.107 373.64,221.352 379.731,216.995ZM367.6,187.344C365.622,187.822 363.932,187.704 362.781,186.826C362.543,186.951 362.32,187.056 362.12,187.143C361.507,187.405 361.153,188.052 361.264,188.708C361.949,193.187 366.263,193.229 371.288,190.693C374.399,188.657 376.922,186.561 378.968,184.504C381.929,182.442 384.434,178.99 384.073,175.803C384.015,175.372 383.718,175.011 383.306,174.872C381.231,174.302 378.474,173.21 376.887,179.776C376.886,179.78 376.885,179.785 376.883,179.789C376.663,180.678 375.814,181.263 374.905,181.151C373.996,181.038 373.314,180.265 373.317,179.349C373.33,179.141 373.328,178.937 373.319,178.737C373.237,176.872 371.549,177.126 371.536,177.649C371.492,179.593 369.532,185.251 367.6,187.344ZM388.648,180.361C388.943,179.894 389.534,179.713 390.039,179.934C390.544,180.155 390.813,180.712 390.671,181.245C389.859,184.166 388.314,187.442 385.299,190.912C384.966,191.298 384.412,191.408 383.956,191.179C383.5,190.95 383.259,190.44 383.371,189.942C384.173,186.512 386.539,183.698 388.648,180.361Z" style="fill:#ea8a00;"/>
            <path d="M369.931,240.678C368.281,240.431 360.819,243.198 361.316,244.642C361.461,245.064 362.048,245.06 362.433,245.004C365.942,244.49 371.404,240.899 369.931,240.678Z" style="fill:#ea8a00;"/>
            <path d="M343.712,198.187C343.58,197.894 343.304,197.693 342.984,197.657C342.665,197.622 342.351,197.758 342.159,198.015C341.393,198.997 340.345,199.921 339.145,200.803C338.82,201.046 338.695,201.476 338.84,201.856C338.985,202.236 339.365,202.474 339.77,202.439C341.155,202.298 342.447,202.414 343.628,202.817C343.932,202.923 344.269,202.859 344.513,202.65C344.757,202.441 344.871,202.117 344.812,201.801C344.57,200.496 344.195,199.297 343.712,198.187Z" style="fill:#ffb81f;"/>
            <path d="M305.735,223.763C305.706,223.779 305.679,223.797 305.653,223.817C302.742,226.14 303.201,229.443 306.019,229.631C320.855,230.622 330.432,234.018 332.94,240.427C333.025,240.645 333.052,240.879 333.268,240.968C333.484,241.058 333.733,240.997 333.883,240.818C338.137,234.684 339.993,225.3 340.54,221.991C340.572,221.785 340.482,221.579 340.309,221.463C340.135,221.346 339.91,221.34 339.731,221.448C338.741,221.983 337.526,222.253 336.095,222.272C335.853,222.279 335.637,222.122 335.57,221.889C335.503,221.657 335.602,221.408 335.811,221.286C337.919,220.076 339.273,218.671 340.07,217.119C340.12,217.02 340.138,216.908 340.122,216.797C340.046,216.269 339.802,214.604 339.642,213.511C339.613,213.316 339.48,213.151 339.295,213.083C339.109,213.014 338.901,213.052 338.752,213.182C337.817,213.974 336.769,214.653 335.604,215.215C335.364,215.333 335.074,215.254 334.927,215.031C334.779,214.808 334.819,214.51 335.021,214.335C336.498,213.069 337.664,211.616 338.502,209.966C338.57,209.831 338.578,209.673 338.525,209.532C338.367,209.112 338.021,208.198 337.847,207.74C337.783,207.57 337.637,207.444 337.459,207.404C335.668,207.027 325.879,205.174 320.737,208.642C320.733,208.644 320.73,208.647 320.726,208.649C317.611,210.644 314.778,210.836 312.197,213.217C310.941,214.375 310.337,217.36 309.538,219.482C309.476,219.632 309.486,219.803 309.564,219.946C309.642,220.089 309.78,220.189 309.94,220.218C312.903,220.814 317.331,222.296 321.029,224.337C321.258,224.481 321.343,224.775 321.225,225.019C321.108,225.263 320.825,225.381 320.569,225.291C313.298,222.502 309.124,221.955 305.735,223.763ZM327.688,224.598C327.936,224.68 328.208,224.653 328.408,224.527C328.608,224.401 328.709,224.192 328.675,223.974C328.636,223.717 328.593,223.441 328.553,223.181C328.518,222.956 328.345,222.754 328.098,222.648C327.852,222.542 327.567,222.549 327.349,222.666C327.07,222.814 326.767,222.976 326.48,223.13C326.245,223.255 326.126,223.487 326.172,223.728C326.218,223.969 326.421,224.178 326.696,224.27C327.026,224.379 327.372,224.493 327.688,224.598ZM332.777,223.784C333.128,223.821 333.478,223.723 333.707,223.525C333.936,223.327 334.011,223.055 333.907,222.805C333.785,222.511 333.653,222.195 333.529,221.897C333.422,221.639 333.139,221.442 332.786,221.377C332.432,221.312 332.059,221.39 331.803,221.581C331.478,221.824 331.123,222.09 330.786,222.342C330.512,222.547 330.419,222.85 330.545,223.124C330.671,223.398 330.995,223.597 331.382,223.637C331.847,223.686 332.334,223.737 332.777,223.784Z" style="fill:#ffb81f;"/>
            <path d="M311.775,220.58C312.552,220.82 313.377,220.389 313.626,219.615C313.875,218.841 313.455,218.01 312.684,217.752C312.641,217.739 312.598,217.725 312.555,217.711C312.157,217.573 311.718,217.62 311.359,217.84C311,218.059 310.757,218.429 310.699,218.846C310.74,219.148 310.746,219.437 310.805,219.726C310.885,220.082 311.155,220.366 311.506,220.465C311.589,220.528 311.682,220.554 311.775,220.58Z" style="fill:#ea8a00;"/>
            <path d="M361.685,207.595C362.106,207.504 362.551,207.677 362.776,208.018C363.002,208.36 362.954,208.788 362.658,209.068C361.561,210.11 359.395,210.782 355.663,210.916C355.257,210.931 354.875,210.718 354.704,210.381C354.434,209.855 354.319,209.374 354.349,208.933C354.378,208.479 354.788,208.129 355.294,208.127C358.043,208.123 360.054,207.912 361.685,207.595Z" style="fill:#ff6b38;"/>
            <path d="M350.929,232.424C351.35,232.333 351.795,232.506 352.021,232.847C352.246,233.189 352.198,233.617 351.902,233.897C350.806,234.939 348.096,236.699 344.364,236.833C343.957,236.848 343.576,236.635 343.405,236.298C343.135,235.772 343.229,233.198 343.259,232.757C343.288,232.303 343.713,231.829 344.204,231.952C347.204,232.701 349.298,232.741 350.929,232.424Z" style="fill:#ff6b38;"/>
            <path d="M347.442,259.105C347.849,258.966 348.311,259.085 348.575,259.397C348.839,259.71 349.384,260.606 348.581,261.383C347.494,262.436 345.13,263.684 341.44,264.256C341.038,264.319 340.634,264.152 340.425,263.838C340.095,263.347 339.886,260.78 339.863,260.339C339.839,259.884 340.205,259.363 340.707,259.427C343.774,259.818 345.859,259.612 347.442,259.105Z" style="fill:#ff6b38;"/>
            <path d="M352.737,257.528C351.595,257.762 350.804,258.615 350.971,259.432C351.138,260.249 352.201,260.723 353.343,260.489C354.484,260.256 355.276,259.403 355.109,258.586C354.942,257.769 353.879,257.295 352.737,257.528Z" style="fill:#ff6b38;"/>
            <path d="M364.561,261.512C363.419,261.746 362.628,262.599 362.795,263.416C362.962,264.233 364.025,264.707 365.167,264.473C366.309,264.24 367.1,263.387 366.933,262.57C366.766,261.753 365.703,261.279 364.561,261.512Z" style="fill:#ffe685;"/>
            <path d="M379.487,225.075C378.014,225.377 376.992,226.474 377.207,227.524C377.421,228.574 378.792,229.181 380.265,228.88C381.739,228.579 382.761,227.482 382.546,226.432C382.331,225.382 380.961,224.774 379.487,225.075Z" style="fill:#ffe685;"/>
            <path d="M386.624,202.447C385.54,203.489 385.262,204.962 386.004,205.735C386.746,206.508 388.229,206.29 389.314,205.248C390.399,204.207 390.677,202.734 389.935,201.961C389.193,201.188 387.709,201.406 386.624,202.447Z" style="fill:#ffe685;"/>
            <path d="M346.771,167.657C347.599,167.475 348.123,166.657 347.943,165.829C347.762,165.001 346.945,164.476 346.117,164.655C346.049,164.671 345.982,164.685 345.914,164.7C345.686,164.75 345.493,164.9 345.388,165.108C344.824,166.2 344.912,167.004 345.579,167.567C345.774,167.73 346.034,167.791 346.281,167.732C346.452,167.733 346.612,167.695 346.771,167.657Z" style="fill:#ffb81f;"/>
            <path d="M402.93,159.796C403.413,159.819 403.786,159.355 403.811,158.871C403.836,158.388 403.508,157.937 403.03,157.86C399.96,157.367 397.27,158.288 395.364,159.784C394.811,160.245 394.722,161.062 395.163,161.632C395.604,162.203 396.418,162.321 397.003,161.901C398.915,160.537 401.28,159.719 402.93,159.796Z" style="fill:#ff6b38;"/>
            <path d="M346.686,177.528C343.033,174.771 330.335,187.01 316.262,189.814C315.985,189.87 315.827,190.175 315.759,190.449C315.327,192.184 315.302,193.603 315.653,194.727C316.496,194.138 317.309,191.659 321.545,190.291C327.599,188.336 334.601,183.667 336.252,182.533C336.481,182.374 336.772,182.333 337.036,182.425C340.498,183.634 342.535,185.213 343.19,187.15C343.32,187.52 343.682,187.756 344.073,187.726C344.464,187.695 344.786,187.405 344.856,187.019C345.28,185.046 344.468,183.024 342.261,180.943C341.956,180.642 341.918,180.164 342.169,179.818C342.421,179.471 342.888,179.361 343.268,179.558C345.447,180.689 347.03,182.203 347.29,184.189C347.352,184.555 347.649,184.837 348.019,184.878C348.389,184.919 348.74,184.709 348.881,184.365C349.983,182.01 349.385,179.565 346.686,177.528Z" style="fill:#ea8a00;"/>
            <path d="M344.484,176.193C343.827,175.868 343.098,175.559 342.297,175.269C337.158,173.416 331.447,174.081 326.871,177.066C321.185,180.306 313.966,184.256 313.028,185.019C310.327,186.543 311.104,189.415 312.472,191.661C312.08,189.871 319.818,186.025 327.64,182.171C334.196,178.941 338.927,174.686 344.484,176.193Z" style="fill:#ffe685;"/>
            <path d="M329.249,195.472C329.066,194.518 327.797,193.778 326.26,193.778C325.045,193.778 322.395,195.19 321.719,195.666C319.635,196.684 319.922,197.754 320.95,198.638C322.657,196.672 325.577,195.704 329.249,195.472Z" style="fill:#af9fc8;"/>
            <path d="M337.059,192.399C337.046,191.949 336.986,191.486 336.876,191.014C336.839,190.86 336.719,190.732 336.552,190.669C335.893,190.64 334.177,190.738 332.94,191.21C332.784,191.285 332.682,191.422 332.666,191.575C332.65,191.729 332.723,191.88 332.861,191.977C333.305,192.357 333.749,192.984 334.03,193.712C334.507,192.303 335.703,192.187 337.059,192.399Z" style="fill:#af9fc8;"/>
            <path d="M313.306,216.344C313.307,216.345 313.309,216.346 313.311,216.348C317.496,219.449 324.351,218.74 327.299,218.247C328.191,218.09 328.981,217.579 329.491,216.831C330.196,215.802 331.279,214.212 332.327,212.674C333.069,211.584 333.105,210.162 332.42,209.036C331.734,207.91 330.454,207.289 329.145,207.448C321.02,208.462 310.597,214.569 313.306,216.344Z" style="fill:#ffe685;"/>
            <path d="M338.093,227.396C338.223,226.693 337.971,225.973 337.431,225.503C336.891,225.034 336.143,224.885 335.464,225.111C332.815,225.939 329.723,226.302 326.406,226.398C325.5,226.432 324.727,227.062 324.51,227.942C324.294,228.823 324.688,229.74 325.475,230.19C328.192,231.686 330.412,233.539 332.067,235.775C332.488,236.355 333.187,236.666 333.9,236.592C334.613,236.517 335.232,236.069 335.525,235.415C336.736,232.717 337.569,230.044 338.093,227.396Z" style="fill:#ea8a00;"/>
            <path d="M394.665,174.077C396.18,176.08 398.063,185.97 397.379,188.594C396.223,190.395 394.842,192.153 393.182,193.849C392.597,194.446 391.981,195.016 391.335,195.558C390.795,196.021 390,196.025 389.456,195.568C388.911,195.111 388.778,194.328 389.14,193.716C392.765,187.635 394.839,181.377 394.862,174.891C394.862,174.742 394.839,174.593 394.795,174.451C394.754,174.326 394.711,174.201 394.665,174.077Z" style="fill:#a92b00;"/>
            <path d="M409.051,148.728C408.134,150.096 406.76,153.488 400.156,154.61C393.897,155.674 386.993,159.785 391.076,168.339C387.61,163.759 384.104,159.056 390.269,152.392C390.395,152.255 390.547,152.144 390.715,152.064C396.482,149.342 402.549,147.238 407.703,146.45C408.271,146.385 408.824,146.66 409.115,147.152C409.406,147.644 409.381,148.261 409.051,148.728Z" style="fill:#ff6b38;"/>
            <path d="M271.773,278.755C271.948,278.846 272.153,278.863 272.342,278.802C272.53,278.741 272.685,278.606 272.773,278.429C273.189,277.596 273.637,276.776 274.08,276.021C274.255,275.731 274.605,275.597 274.928,275.698C275.251,275.798 275.464,276.106 275.444,276.444C275.357,277.895 275.336,279.158 275.329,280.256C275.327,280.556 275.506,280.827 275.783,280.942C276.892,281.39 278.065,281.634 279.312,281.383C279.557,281.331 279.758,281.157 279.845,280.922C280.582,278.333 281.849,267.942 279.926,262.581C279.832,262.366 279.641,262.21 279.412,262.16C279.183,262.11 278.944,262.172 278.769,262.328C273.969,266.579 269.615,270.466 270.59,277.816C270.625,278.075 270.795,278.296 271.037,278.397C271.278,278.501 271.524,278.622 271.773,278.755Z" style="fill:#fff;"/>
            <path d="M285.074,281.786C285.453,281.829 285.797,281.56 285.846,281.182C285.974,280.235 286.137,279.292 286.318,278.419C286.386,278.105 286.66,277.878 286.981,277.87C287.303,277.861 287.588,278.073 287.673,278.383C287.95,279.384 288.227,280.285 288.491,281.1C288.55,281.283 288.683,281.433 288.856,281.516C289.03,281.598 289.23,281.605 289.409,281.536C289.897,281.329 290.338,281.05 290.696,280.658C290.942,280.378 290.919,279.953 290.644,279.701C289.897,278.381 289.948,274.888 287.822,270.481C287.743,270.315 287.601,270.187 287.428,270.125C281.082,267.827 283.476,270.462 282.408,280.721C282.368,281.104 282.645,281.447 283.028,281.489C283.599,281.57 284.308,281.693 285.074,281.786Z" style="fill:#fff;"/>
            <path d="M294.542,203.776C298.092,204.772 301.85,204.761 305.394,203.743C305.602,203.681 305.807,203.622 306.008,203.566C308.821,202.428 317.429,201.061 317.261,202.397C316.26,210.373 308.755,209.86 306.404,211.285C306.028,211.513 303.103,213.577 303.188,214.414C303.217,214.703 305.994,212.825 306.242,213.862C306.529,215.057 306.277,216.727 305.497,218.77C305.378,219.081 304.538,220.197 303.549,221.453C302.834,222.633 301.553,223.353 300.173,223.35C298.792,223.346 297.515,222.62 296.806,221.436C295.717,219.912 294.751,218.495 294.61,218.127C293.842,216.116 293.787,214.564 293.861,213.417C293.88,213.126 296.477,214.795 296.451,214.556C296.231,212.556 294.106,211.208 293.703,210.963C291.352,209.538 283.739,210.373 282.739,202.397C282.571,201.061 291.727,202.638 294.541,203.776C294.541,203.776 294.541,203.776 294.542,203.776Z" style="fill:#e53a00;"/>
            <path d="M298.058,216.383C298.052,211.86 301.825,214.181 301.58,216.58C301.532,217.047 301.834,217.395 302.139,217.66C302.394,217.88 302.848,218.161 303.555,218.036C303.73,218.005 304.055,217.897 304.447,217.718C304.447,217.718 304.448,217.718 304.448,217.718C304.5,217.693 304.561,217.7 304.607,217.735C304.653,217.77 304.676,217.827 304.667,217.884C304.612,218.2 304.533,218.535 304.43,218.891C304.24,219.582 303.928,220.233 303.508,220.814C303.332,221.086 303.11,221.388 302.893,221.67C302.893,221.67 302.892,221.671 302.892,221.671C302.192,222.58 301.083,223.078 299.939,222.999C298.794,222.92 297.765,222.274 297.196,221.277C296.635,220.438 296.207,219.783 296.12,219.554C296.002,219.246 295.904,218.949 295.822,218.666C295.788,218.545 295.816,218.415 295.897,218.32C295.978,218.224 296.102,218.175 296.226,218.189C296.226,218.188 296.227,218.188 296.227,218.188C296.869,218.262 297.277,218.001 297.52,217.784C297.883,217.462 298.058,217.023 298.058,216.383Z" style="fill:#a92b00;"/>
            <path d="M287.197,205.795C285.891,205.631 284.814,204.692 284.474,203.419C284.469,203.42 284.469,203.42 284.469,203.419C284.785,203.415 285.143,203.42 285.47,203.445C288.215,203.661 292.291,204.494 293.974,205.175C294.026,205.196 294.086,205.198 294.133,205.229C296.752,206.962 303.923,206.639 306.416,205.02C306.463,204.989 306.523,204.986 306.574,204.966C308.248,204.288 312.096,203.539 314.673,203.382C314.958,203.365 315.268,203.366 315.545,203.375C315.545,203.375 315.545,203.376 315.544,203.377C315.221,204.64 314.154,205.573 312.86,205.725C310.534,206.018 307.886,206.593 306.574,207.124C306.523,207.145 306.463,207.148 306.416,207.178C303.923,208.798 296.752,209.121 294.133,207.388C294.086,207.357 294.026,207.355 293.974,207.334C292.619,206.786 289.712,206.139 287.197,205.795Z" style="fill:#ff6b38;"/>
            <path d="M292.937,172.223C292.676,171.831 292.753,171.305 293.116,171.005C297.335,167.528 301.75,166.876 306.453,170.347C306.848,170.639 306.942,171.19 306.667,171.596C306.346,172.078 305.886,172.758 305.385,173.501C305.133,173.874 305.188,174.375 305.516,174.684C305.844,174.993 306.347,175.019 306.705,174.746C306.927,174.576 307.084,174.456 307.146,174.409C307.165,174.394 307.185,174.38 307.206,174.367C317.315,167.844 324.612,164.949 329.436,165.242C329.83,165.279 330.155,165.568 330.237,165.956C330.319,166.343 330.14,166.739 329.794,166.933C328.837,167.484 327.719,168.11 326.831,168.605C326.529,168.774 326.347,169.099 326.361,169.445C326.375,169.791 326.582,170.1 326.897,170.244C327.682,170.603 328.619,171.032 329.41,171.394C329.728,171.54 329.936,171.854 329.946,172.204C329.956,172.554 329.766,172.88 329.457,173.043C326.06,174.838 318.574,178.794 318.215,178.983C318.206,178.988 318.196,178.993 318.186,178.998C317.725,179.222 307.341,184.332 307.678,188.449C307.735,189.144 310.054,192.983 311.766,195.733C312.196,196.424 312.284,197.274 312.005,198.038C311.726,198.802 311.111,199.395 310.337,199.645C308.417,200.267 305.968,201.06 303.936,201.718C301.377,202.546 298.622,202.546 296.064,201.718C294.036,201.061 291.593,200.27 289.674,199.649C288.899,199.398 288.283,198.804 288.005,198.038C287.726,197.272 287.816,196.421 288.249,195.731C289.971,192.981 292.296,189.146 292.322,188.449C292.493,183.731 282.499,179.296 281.833,179.005C281.81,178.995 281.788,178.985 281.767,178.974C281.233,178.692 273.896,174.815 270.543,173.043C270.234,172.88 270.044,172.554 270.054,172.204C270.064,171.854 270.272,171.54 270.59,171.394C271.468,170.992 272.526,170.508 273.356,170.128C273.65,169.994 273.851,169.715 273.887,169.394C273.923,169.073 273.787,168.756 273.53,168.561C272.685,167.917 271.533,167.04 270.512,166.263C270.189,166.017 270.065,165.588 270.208,165.207C270.351,164.827 270.727,164.585 271.133,164.614C276.653,165.245 283.474,167.87 292.825,174.387C292.825,174.387 292.831,174.392 292.842,174.402C293.087,174.624 293.458,174.629 293.708,174.413C293.958,174.198 294.008,173.83 293.825,173.556C293.483,173.042 293.173,172.576 292.937,172.223Z" style="fill:#ffe685;"/>
            <path d="M293.656,282.495C297.944,281.524 302.394,281.524 306.682,282.494C309.331,283.1 312.408,283.656 315.21,283.8C320.015,284.048 325.254,283.419 329.484,280.68C331.76,279.206 331.848,275.247 330.897,270.997C330.088,267.381 323.496,253.74 325.946,252.891C327.905,252.212 326.726,257.462 332.751,262.572C334.145,263.754 338.901,274.9 339.027,280.68C339.046,281.549 332.085,289.281 331.603,289.263C324.467,288.995 312.274,292.159 309.745,293.59C308.291,294.414 301.766,291.342 300.04,291.56L300,291.566C298.336,291.293 291.721,294.42 290.255,293.59C287.726,292.159 275.533,288.995 268.397,289.263C267.915,289.281 260.954,281.549 260.973,280.68C261.098,274.9 265.855,263.754 267.249,262.572C273.274,257.462 272.095,252.212 274.054,252.891C276.504,253.74 269.912,267.381 269.103,270.997C268.152,275.247 268.24,279.206 270.515,280.68C277.263,285.048 287.204,283.938 293.656,282.495Z" style="fill:#ffb81f;"/>
            <path d="M270.297,264.081C270.297,264.081 270.221,264.241 270.084,264.53C269.825,265.074 269.188,265.323 268.628,265.099C268.069,264.875 267.78,264.255 267.967,263.683C268.008,263.559 268.03,263.493 268.03,263.493C268.03,263.493 268.276,263.262 268.635,262.926C268.978,262.604 269.494,262.551 269.896,262.795C270.297,263.039 270.488,263.521 270.361,263.973C270.36,263.974 270.36,263.975 270.36,263.975L270.297,264.081ZM329.702,264.081L329.64,263.975C329.64,263.975 329.639,263.974 329.639,263.973C329.512,263.52 329.702,263.038 330.104,262.794C330.506,262.55 331.022,262.604 331.365,262.925C331.724,263.262 331.97,263.493 331.97,263.493C331.97,263.493 331.992,263.559 332.032,263.683C332.22,264.255 331.931,264.875 331.371,265.099C330.812,265.322 330.175,265.073 329.916,264.53C329.779,264.241 329.702,264.081 329.702,264.081Z" style="fill:#ffe685;"/>
            <path d="M300,258.171C306.941,255.911 309.364,254.742 312.784,256.483C317.197,258.728 318.417,262.848 317.252,266.46C317.081,267.008 316.681,267.455 316.154,267.684C315.628,267.913 315.028,267.901 314.511,267.652C313.409,267.145 312.429,267.778 311.516,269.837C311.279,270.325 310.853,270.695 310.337,270.861C309.821,271.028 309.26,270.977 308.783,270.719C306.088,269.248 303.15,268.637 300,270.019C296.688,268.566 294.534,268.602 292.026,270.02C291.276,270.43 290.348,270.317 289.719,269.738C288.457,268.579 286.268,267.953 284.749,267.787C284.09,267.728 283.503,267.346 283.183,266.768C281.125,263.023 282.171,259.05 287.215,256.483C290.636,254.742 294.047,256.542 300,258.171Z" style="fill:#e53a00;"/>
            <path d="M300.592,269.232C300.221,269.34 299.827,269.33 299.462,269.205C297.69,268.594 296.176,268.408 294.741,268.57C293.838,268.672 292.956,268.913 292.055,269.304C291.478,269.554 290.813,269.496 290.288,269.15C289.998,268.964 289.694,268.79 289.375,268.631C288.356,268.123 287.207,267.773 286.158,267.562C285.458,267.429 284.894,266.908 284.706,266.22C284.517,265.535 284.495,264.853 284.67,264.191C285.049,262.759 286.285,261.533 288.285,260.515C289.502,259.896 290.722,259.989 292.161,260.299C295.436,261.004 297.31,262.48 298.4,263.879C298.732,264.31 299.258,264.547 299.801,264.509C300.345,264.47 300.833,264.162 301.101,263.688C302.052,261.993 303.828,260.311 307.108,260.311C309.023,260.311 310.208,259.749 311.715,260.515C313.771,261.562 314.877,263.169 315.18,264.878C315.274,265.398 315.145,265.933 314.823,266.351C314.502,266.77 314.018,267.034 313.492,267.076C313.492,267.078 313.492,267.078 313.492,267.078C312.527,267.157 311.537,267.598 310.642,268.661C310.533,268.791 310.423,268.935 310.313,269.092C309.811,269.785 308.903,270.048 308.109,269.731C305.743,268.781 303.228,268.478 300.592,269.232Z" style="fill:#ff6b38;"/>
            <path d="M300,293.926C300,293.926 307.756,294.439 306.003,297.853C303.343,303.032 296.657,303.032 293.997,297.853C292.244,294.439 298.008,293.915 300,293.926Z" style="fill:#e53a00;"/>
            <path d="M299.975,295.51C299.975,295.51 302.266,295.815 301.749,297.844C300.963,300.922 298.988,300.922 298.202,297.844C297.685,295.815 299.387,295.504 299.975,295.51Z" style="fill:#ff6b38;"/>
            <path d="M299.903,163.524C295.82,163.649 293.847,168.573 289.73,168.47C285.709,168.369 279.51,163.167 275.488,162.907C257.89,161.77 240.291,159.035 222.693,154.056C219.262,141.124 234.319,135.27 234.685,121.277C246.42,128.577 241.417,136.891 245.611,141.283C251.335,147.278 259.866,144.417 260.64,129.279C261.229,117.738 243.865,106.966 260.96,83.814C253.279,112.934 292.883,126.237 288.342,92.476C309.98,115.647 280.764,135.174 300,139.47C319.236,135.174 290.02,94.287 311.658,71.116C303.766,104.877 329.967,102.672 328.151,88.84C347.13,101.731 337.285,117.755 336.429,129.279C334.899,149.862 357.978,152.031 361.755,130.491C367.985,140.924 371.498,143.25 368.067,156.182C365.184,156.998 357.48,158.685 354.963,159.148C348.513,160.335 340.968,163.904 339.85,163.95C338.456,164.008 332.48,161.231 325.155,161.704C321.133,161.964 315.47,165.26 312.95,166.969C309.515,169.298 304.149,163.571 300,163.522L299.903,163.524Z" style="fill:#ff6b38;"/>
            <path d="M222.382,152.623C224.407,145.787 235.831,136.559 237.07,134.339C237.273,135.415 237.358,136.444 237.508,137.384C238.022,140.592 239,143.322 241.135,145.557C246.337,151.006 252.93,151.818 258.284,148.44C262.337,145.883 266.288,140.012 266.82,129.595C267.044,125.221 265.462,120.873 263.391,116.225C262.557,114.354 261.616,112.405 260.88,110.299C265.977,115.97 272.953,118.979 278.877,118.573C283.183,118.277 287.505,116.439 290.574,112.551C290.558,117.786 288.756,122.457 287.812,126.253C286.417,131.865 286.62,136.454 289.028,139.859C290.694,142.216 293.54,144.369 298.651,145.51C299.539,145.709 300.461,145.709 301.349,145.51C307.95,144.036 311.242,140.066 312.555,134.314C313.458,130.363 313.163,125.196 312.306,119.332C311.442,113.422 310.039,106.646 309.576,99.78C314.518,105.202 321.524,105.578 326.648,103.037C328.201,102.266 329.628,101.211 330.825,99.9C333.672,104.155 333.84,108.613 333.225,112.899C332.405,118.609 330.609,124.087 330.257,128.82C329.151,143.695 337.925,151.244 346.67,151.855C350.079,152.093 353.772,151.263 357.134,149.195C359.155,147.938 361.632,147.651 363.887,148.414C366.141,149.176 367.936,150.908 368.778,153.133C368.789,153.13 368.789,153.13 368.789,153.13C368.596,154.08 368.356,155.093 368.067,156.182C365.184,156.998 357.48,158.685 354.963,159.148C348.513,160.335 340.968,163.904 339.85,163.95C338.456,164.008 332.48,161.231 325.155,161.704C321.133,161.964 315.47,165.26 312.95,166.969C309.515,169.298 304.149,163.571 300,163.522L299.903,163.524C295.82,163.649 293.847,168.573 289.73,168.47C285.709,168.369 279.51,163.167 275.488,162.907C257.89,161.77 240.291,159.035 222.693,154.056C222.564,153.569 222.461,153.091 222.382,152.623Z" style="fill:#e53a00;"/>
            <path d="M319.135,157.43C314.093,159.298 308.56,159.357 303.48,157.597C298.388,155.794 294.553,157.258 291.207,160.965C290.615,161.612 289.784,161.989 288.907,162.008C288.03,162.027 287.184,161.687 286.564,161.067C283.758,158.176 282.593,152.899 277.168,151.672C272.538,150.624 267.015,153.671 261.871,154.924C261.456,154.955 261.073,154.699 260.943,154.303C260.812,153.908 260.968,153.474 261.32,153.252C261.311,153.238 261.311,153.238 261.311,153.238C266.383,150.037 271.82,142.92 272.486,129.885C272.538,128.864 272.514,127.842 272.424,126.818C272.356,126.014 272.649,125.222 273.224,124.656C273.798,124.089 274.594,123.807 275.397,123.886C275.452,123.905 275.509,123.908 275.566,123.91C279.3,124.251 282.161,127.378 282.171,131.127C282.25,135.524 282.681,140.708 284.395,143.134C286.671,146.352 290.438,149.489 297.414,151.047C299.117,151.427 300.883,151.427 302.585,151.047C311.712,149.009 316.27,143.529 318.086,135.577C318.829,132.321 317.933,121.911 317.198,115.268C317.064,114.007 317.45,112.745 318.266,111.775C319.083,110.804 320.26,110.209 321.526,110.127C321.538,110.188 321.545,110.187 321.553,110.187C322.94,110.095 324.299,110.612 325.274,111.603C326.249,112.594 326.744,113.962 326.629,115.347C325.855,119.919 324.806,125.618 324.599,128.4C323.996,136.518 325.796,142.856 328.929,147.519C330.017,149.129 330.16,151.199 329.304,152.944C328.448,154.689 326.724,155.843 324.784,155.968C324.789,156.042 324.789,156.042 324.789,156.042C323.074,156.153 321.104,156.69 319.135,157.43ZM233.022,146.854C233.316,146.529 233.744,146.357 234.181,146.388C234.619,146.419 235.018,146.649 235.263,147.012C235.381,147.172 235.513,147.332 235.652,147.496C236.195,148.248 236.212,149.258 235.696,150.028C235.179,150.798 234.238,151.165 233.337,150.949C233.315,150.965 233.297,150.961 233.28,150.957C232.601,150.794 232.057,150.288 231.846,149.623C231.634,148.958 231.785,148.231 232.244,147.706C232.515,147.407 232.78,147.118 233.022,146.854Z" style="fill:#a92b00;"/>
            <path d="M294.692,279.839C294.702,280.101 294.507,280.325 294.246,280.353C293.409,280.445 292.732,280.358 292.45,279.86C290.719,276.801 289.004,274.082 291.166,272.634C293.153,271.303 294.574,269.788 298.533,271.925C298.602,271.961 298.661,272.014 298.706,272.078C299.88,273.823 298.535,276.206 299.084,278.863C299.117,279.007 299.083,279.159 298.992,279.276C298.901,279.393 298.761,279.462 298.613,279.464C298.226,279.499 297.776,279.587 297.298,279.697C297.08,279.746 296.856,279.643 296.751,279.446C296.33,278.664 295.895,277.915 295.476,277.245C295.352,277.053 295.114,276.97 294.898,277.042C294.682,277.115 294.543,277.326 294.561,277.553C294.624,278.368 294.665,279.129 294.692,279.839Z" style="fill:#fff;"/>
            <path d="M323.375,280.149C323.377,280.553 323.089,280.899 322.691,280.97C322.155,281.062 321.57,281.144 320.931,281.214C320.552,281.255 320.194,281.032 320.063,280.674C319.201,277.746 317.37,268.175 319.419,263.176C319.561,262.868 319.878,262.677 320.217,262.698C324.921,262.992 327.899,266.068 329.283,277.692C329.322,278.023 329.159,278.346 328.869,278.511C328.554,278.707 328.199,278.968 327.728,279.252C327.524,279.374 327.278,279.403 327.052,279.331C326.825,279.258 326.641,279.093 326.546,278.875C326.031,277.731 325.424,276.561 324.814,275.499C324.621,275.171 323.94,274.334 323.576,274.444C323.212,274.555 323.258,275.583 323.278,275.963C323.364,277.591 323.369,278.975 323.375,280.149Z" style="fill:#fff;"/>
            <path d="M311.34,281.303C311.206,281.543 310.918,281.65 310.66,281.556C310.116,281.344 309.63,281.037 309.246,280.593C309.151,280.48 309.106,280.333 309.121,280.185C309.137,280.038 309.211,279.904 309.327,279.812C310.307,278.504 310.925,274.592 313.164,270.016C313.233,269.873 313.361,269.766 313.514,269.723C316.464,268.935 318.813,273.43 317.733,280.978C317.696,281.233 317.489,281.43 317.232,281.453C316.424,281.555 315.255,281.784 314.029,281.876C313.855,281.886 313.686,281.815 313.572,281.683C313.459,281.55 313.413,281.373 313.45,281.202C313.616,280.416 313.763,279.626 313.887,278.872C313.929,278.602 313.769,278.341 313.51,278.256C313.25,278.171 312.967,278.286 312.841,278.528C312.299,279.571 311.795,280.488 311.34,281.303Z" style="fill:#fff;"/>
            <path d="M301.959,279.482C302.244,279.531 302.528,279.387 302.657,279.128C303.117,278.215 303.612,277.318 304.098,276.508C304.256,276.251 304.569,276.135 304.857,276.227C305.145,276.319 305.333,276.595 305.313,276.896C305.247,277.908 305.214,278.83 305.196,279.672C305.189,280.012 305.442,280.302 305.78,280.34C306.612,280.439 307.28,280.358 307.55,279.86C309.226,276.774 309.344,274.122 308.062,273.114C306.264,271.7 305.368,269.835 301.527,271.856C301.383,271.931 301.271,272.057 301.215,272.21C300.399,274.423 300.289,276.637 300.653,278.851C300.706,279.163 300.974,279.392 301.29,279.398C301.495,279.407 301.72,279.438 301.959,279.482Z" style="fill:#fff;"/>
            <path d="M327.215,239.739C327.112,239.535 326.897,239.413 326.669,239.43C326.441,239.447 326.246,239.6 326.174,239.817C325.651,241.366 325.011,242.992 324.314,244.52C324.194,244.774 323.906,244.901 323.637,244.819C323.369,244.736 323.203,244.468 323.247,244.191C323.848,240.685 324.295,238 323.881,235.351C323.859,235.214 323.788,235.09 323.68,235.003C321.496,233.227 319.366,233.256 318.293,234.694C318.202,234.819 318.167,234.976 318.195,235.128C319.536,242.361 317.229,248.284 319.412,254.891C319.479,255.093 319.655,255.24 319.866,255.271C321.75,255.041 327.103,249.484 328.362,242.729C328.38,242.632 328.373,242.532 328.34,242.438C327.993,241.449 327.615,240.551 327.215,239.739ZM277.767,234.662C277.816,234.292 277.994,233.953 278.349,233.839C279.567,233.447 280.652,233.641 281.395,234.343C281.658,234.589 281.732,234.976 281.579,235.302C280.625,237.586 280.694,247.496 281.66,253.455C281.691,253.632 281.637,253.813 281.516,253.946C281.394,254.078 281.217,254.146 281.038,254.13C278.84,253.274 273.56,248.92 271.69,242.845C271.638,242.673 271.642,242.488 271.702,242.319C272.273,240.715 272.926,239.353 273.62,238.216C273.784,237.959 274.073,237.812 274.377,237.83C274.68,237.848 274.95,238.03 275.082,238.304C275.471,239.098 277.107,243.676 277.454,243.505C278.571,242.955 277.18,239.106 277.767,234.662ZM289.202,232.21C289.288,232.053 289.444,231.948 289.621,231.928C290.657,231.818 291.599,231.968 292.247,232.651C292.345,232.76 292.393,232.904 292.38,233.05C292.368,233.196 292.295,233.33 292.18,233.42C291.215,234.826 290.684,239.114 288.294,241.422C288.239,241.475 288.196,241.538 288.167,241.608C287.618,242.707 284.264,244.33 283.026,243.938C282.856,243.85 282.749,243.674 282.749,243.483C282.719,242.293 282.785,237.382 283.604,233.993C283.659,233.78 283.835,233.62 284.053,233.587C284.39,233.518 284.797,233.386 285.249,233.225C285.418,233.168 285.604,233.197 285.748,233.303C285.891,233.408 285.974,233.577 285.971,233.755C285.956,234.614 285.967,235.456 286.002,236.23C286.017,236.481 286.2,236.69 286.447,236.737C286.693,236.784 286.94,236.657 287.046,236.429C287.825,234.747 288.566,233.368 289.202,232.21ZM314.484,233.096C314.283,233.024 314.06,233.062 313.895,233.197C313.731,233.332 313.649,233.544 313.681,233.754C313.772,234.373 313.843,234.99 313.89,235.586C313.908,235.881 313.709,236.145 313.422,236.211C313.134,236.276 312.841,236.123 312.73,235.85C312.11,234.282 311.634,233.065 311.1,232.072C311.018,231.922 310.876,231.813 310.71,231.774C309.34,231.449 308.061,231.438 307.267,232.252C307.078,232.447 307.046,232.745 307.188,232.977C310.618,238.583 308.306,241.926 313.658,243.127C313.774,243.154 313.896,243.145 314.007,243.103C318.196,241.526 318.019,239.208 316.417,233.999C316.349,233.777 316.16,233.614 315.931,233.579C315.537,233.492 315.041,233.313 314.484,233.096ZM297.003,232.97C297.041,232.741 297.178,232.54 297.377,232.421C297.577,232.302 297.818,232.276 298.038,232.352C298.085,232.369 298.131,232.385 298.176,232.401C298.487,232.515 298.695,232.811 298.695,233.143C298.696,234.738 298.696,239.465 298.696,241.434C298.696,241.657 298.602,241.869 298.437,242.019C298.272,242.169 296.028,242.486 295.807,242.465C293.425,242.363 290.504,242.601 290.862,240.688C291.464,237.468 293.596,235.074 293.892,233.641C293.892,233.64 293.893,233.639 293.893,233.638C293.921,233.507 294.041,233.415 294.175,233.422C294.31,233.429 294.42,233.532 294.434,233.666C294.531,234.431 294.679,235.247 294.853,236.041C294.933,236.409 295.261,237.118 295.637,237.111C296.013,237.103 296.332,236.381 296.397,236.011C296.624,234.79 296.847,233.793 297.003,232.97ZM302.117,232.774C302.026,232.441 301.687,232.241 301.352,232.322C300.992,232.408 300.671,232.504 300.418,232.59C300.167,232.683 300.001,232.921 300.001,233.188C300,234.697 300,239.673 300,241.536C300,241.716 300.077,241.889 300.211,242.01C300.346,242.131 301.538,242.196 301.717,242.225C304.243,242.628 307.984,242.741 308.177,240.762C308.604,236.375 306.267,235.074 305.97,233.641C305.97,233.64 305.97,233.64 305.97,233.639C305.904,233.325 305.612,233.112 305.293,233.146C304.974,233.18 304.733,233.45 304.735,233.77C304.677,234.667 304.516,235.695 304.306,236.705C304.251,237.006 303.821,237.947 303.515,237.947C303.21,237.946 303.118,237.003 303.065,236.702C302.827,234.829 302.389,233.657 302.117,232.774Z" style="fill:#fff;"/>
            <path d="M325.946,240.477C326.769,240.949 327.516,241.452 328.177,241.986C327.876,241.174 327.553,240.426 327.215,239.739C327.112,239.535 326.897,239.413 326.669,239.43C326.441,239.447 326.246,239.6 326.174,239.817C326.1,240.036 326.024,240.256 325.946,240.477ZM272.193,241.044C272.637,239.979 273.118,239.038 273.62,238.216C273.784,237.959 274.073,237.812 274.377,237.83C274.68,237.848 274.95,238.03 275.082,238.304C275.156,238.456 275.276,238.745 275.423,239.112C274.185,239.693 273.098,240.337 272.193,241.044ZM318.521,237.527C320.497,238.076 322.323,238.719 323.944,239.457C324.08,238.013 324.088,236.678 323.881,235.351C323.859,235.214 323.788,235.09 323.68,235.003C321.496,233.227 319.366,233.256 318.293,234.694C318.202,234.819 318.167,234.976 318.195,235.128C318.347,235.944 318.451,236.743 318.521,237.527ZM277.641,238.195C277.594,237.103 277.603,235.906 277.767,234.662C277.816,234.292 277.994,233.953 278.349,233.839C279.567,233.447 280.652,233.641 281.395,234.343C281.658,234.589 281.732,234.976 281.579,235.302C281.414,235.696 281.28,236.318 281.175,237.107C279.925,237.43 278.741,237.793 277.641,238.195ZM308.513,235.661C311.589,236.005 314.551,236.517 317.267,237.197C317.086,236.269 316.79,235.213 316.417,233.999C316.349,233.777 316.16,233.614 315.931,233.579C315.537,233.492 315.041,233.313 314.484,233.096C314.283,233.024 314.06,233.062 313.895,233.197C313.731,233.332 313.649,233.544 313.681,233.754C313.772,234.373 313.843,234.99 313.89,235.586C313.908,235.881 313.709,236.145 313.422,236.211C313.134,236.276 312.841,236.123 312.73,235.85C312.11,234.282 311.634,233.065 311.1,232.072C311.018,231.922 310.876,231.813 310.71,231.774C309.34,231.449 308.061,231.438 307.267,232.252C307.078,232.447 307.046,232.745 307.188,232.977C307.776,233.938 308.195,234.832 308.513,235.661ZM283.133,236.646C283.252,235.722 283.406,234.813 283.604,233.993C283.659,233.78 283.835,233.62 284.053,233.587C284.39,233.518 284.797,233.386 285.249,233.225C285.418,233.168 285.604,233.197 285.748,233.303C285.891,233.408 285.974,233.577 285.971,233.755C285.956,234.569 285.966,235.367 285.997,236.107C285.016,236.267 284.059,236.446 283.133,236.646ZM287.29,235.909C287.98,234.46 288.633,233.247 289.202,232.21C289.288,232.053 289.444,231.948 289.621,231.928C290.657,231.818 291.599,231.968 292.247,232.651C292.345,232.76 292.393,232.904 292.38,233.05C292.368,233.196 292.295,233.33 292.18,233.42C291.877,233.862 291.616,234.588 291.328,235.448C289.952,235.568 288.602,235.722 287.29,235.909ZM304.559,235.314C305.379,235.367 306.193,235.431 307,235.506C306.535,234.768 306.089,234.215 305.97,233.641C305.97,233.64 305.97,233.64 305.97,233.639C305.904,233.325 305.612,233.112 305.293,233.146C304.974,233.18 304.733,233.45 304.735,233.77C304.704,234.255 304.642,234.777 304.559,235.314ZM293.152,235.31C293.514,234.658 293.797,234.1 293.892,233.641C293.892,233.64 293.893,233.639 293.893,233.638C293.921,233.507 294.041,233.415 294.175,233.422C294.31,233.429 294.42,233.532 294.434,233.666C294.498,234.171 294.584,234.697 294.685,235.225C294.172,235.249 293.662,235.277 293.152,235.31ZM300,235.138C300.939,235.151 301.877,235.178 302.812,235.219C302.583,234.164 302.309,233.397 302.117,232.774C302.026,232.441 301.687,232.241 301.352,232.322C300.992,232.408 300.671,232.504 300.418,232.59C300.167,232.683 300.001,232.921 300.001,233.188C300.001,233.613 300.001,234.312 300,235.138ZM296.561,235.158C296.729,234.315 296.885,233.593 297.003,232.97C297.041,232.741 297.178,232.54 297.377,232.421C297.577,232.302 297.818,232.276 298.038,232.352C298.085,232.369 298.131,232.385 298.176,232.401C298.487,232.515 298.695,232.811 298.695,233.143C298.695,233.597 298.695,234.305 298.696,235.13C297.982,235.131 297.27,235.141 296.561,235.158Z" style="fill:#af9fc8;"/>
            <path d="M299.903,328.931C292.957,318.191 269.914,305.785 261.827,297.453C261.649,296.976 261.79,296.439 262.181,296.112C262.571,295.786 263.125,295.741 263.562,296.001C264.349,296.408 265.14,296.834 265.951,297.25C266.3,297.432 266.728,297.338 266.968,297.028C267.209,296.718 267.193,296.28 266.93,295.988C266.734,295.909 266.582,295.79 266.433,295.67C265.926,295.254 265.824,294.519 266.198,293.981C266.572,293.442 267.297,293.282 267.864,293.613C271.885,295.807 276.379,296.887 281.345,299.127C281.64,299.267 281.994,299.154 282.154,298.869C282.314,298.583 282.225,298.222 281.95,298.044C281.893,298.008 281.835,297.973 281.777,297.938C281.238,297.596 281.03,296.912 281.288,296.329C281.545,295.745 282.191,295.438 282.806,295.606C288.123,297.225 294.633,300.35 300,306.544L300.132,306.393C305.477,300.294 311.929,297.208 317.217,295.648C317.808,295.489 318.428,295.785 318.675,296.346C318.922,296.906 318.724,297.563 318.208,297.893C318.171,297.969 318.11,298.006 318.049,298.043C317.779,298.224 317.693,298.582 317.852,298.866C318.01,299.15 318.36,299.264 318.656,299.129C323.621,296.887 328.115,295.807 332.156,293.646C332.705,293.322 333.411,293.476 333.775,294C334.139,294.523 334.038,295.238 333.543,295.64C333.418,295.79 333.266,295.909 333.114,296.027C332.867,296.297 332.851,296.705 333.075,296.994C333.299,297.282 333.697,297.368 334.02,297.197C334.861,296.834 335.652,296.407 336.42,295.969C336.87,295.699 337.443,295.743 337.846,296.08C338.25,296.417 338.396,296.972 338.211,297.464C330.053,305.822 306.827,318.306 300,329.082L299.903,328.931ZM300,310.567C300,310.567 312.644,306.924 309.581,308.867C307.052,310.472 303.742,313.929 300,315.539C296.258,313.929 293.56,310.472 291.031,308.867C287.968,306.924 298.107,310.556 300,310.567Z" style="fill:#ea8a00;"/>
            <path d="M296.059,213.318C293.559,209.053 286.586,210.8 284.74,207.125C288.327,208.567 293.459,207.838 295.343,210.2C295.812,210.788 296.009,212.541 296.059,213.318Z" style="fill:#a92b00;"/>
            <path d="M327.806,170.66L329.41,171.394C329.728,171.54 329.936,171.854 329.946,172.204C329.956,172.554 329.766,172.88 329.457,173.043C326.06,174.838 318.574,178.794 318.215,178.983C318.206,178.988 318.196,178.993 318.186,178.998C317.797,179.187 310.334,182.859 308.222,186.476C307.899,185.855 307.694,185.394 307.678,185.194C307.341,181.076 317.725,175.967 318.186,175.742C318.196,175.738 318.206,175.733 318.215,175.728L327.806,170.66ZM272.194,170.66L281.767,175.718C281.788,175.73 281.81,175.74 281.833,175.75C282.499,176.04 292.493,180.476 292.322,185.194C292.315,185.39 292.125,185.834 291.819,186.434C289.802,182.537 282.403,179.254 281.833,179.005C281.81,178.995 281.788,178.985 281.767,178.974C281.233,178.692 273.896,174.815 270.543,173.043C270.234,172.88 270.044,172.554 270.054,172.204C270.064,171.854 270.272,171.54 270.59,171.394L272.194,170.66Z" style="fill:#ffb81f;"/>
            <path d="M289.615,177.734C288.878,177.315 288.619,176.379 289.037,175.641C289.454,174.904 290.39,174.644 291.128,175.06C291.188,175.095 291.248,175.129 291.309,175.163C291.512,175.278 291.652,175.478 291.691,175.708C291.907,176.918 291.584,177.66 290.78,178.001C290.546,178.098 290.28,178.08 290.061,177.95C289.898,177.901 289.756,177.817 289.615,177.734Z" style="fill:#ffb81f;"/>
            <path d="M316.379,311.283C316.786,311.02 316.94,310.5 316.743,310.059C316.545,309.617 316.055,309.385 315.588,309.513C313.023,310.265 309.234,312.58 303.67,317.16C303.44,317.348 303.309,317.631 303.312,317.928C303.319,319.019 303.706,319.654 304.431,319.891C304.756,320.007 305.119,319.94 305.381,319.716C310.02,315.774 313.473,313.206 316.379,311.283ZM283.642,311.283C283.235,311.02 283.081,310.5 283.278,310.059C283.476,309.617 283.966,309.385 284.433,309.513C286.998,310.265 290.787,312.58 296.351,317.16C296.581,317.348 296.712,317.631 296.709,317.928C296.702,319.019 296.315,319.654 295.59,319.891C295.265,320.007 294.902,319.94 294.64,319.716C290.001,315.774 286.548,313.206 283.642,311.283Z" style="fill:#ffb81f;"/>
            <path d="M310.567,177.734C311.303,177.315 311.562,176.379 311.145,175.641C310.727,174.904 309.792,174.644 309.053,175.06C308.993,175.095 308.933,175.129 308.873,175.163C308.67,175.278 308.53,175.478 308.491,175.708C308.275,176.918 308.598,177.66 309.401,178.001C309.636,178.098 309.902,178.08 310.12,177.95C310.284,177.901 310.426,177.817 310.567,177.734Z" style="fill:#ffb81f;"/>
            <path d="M280.789,305.977C281.851,306.457 282.435,307.464 282.091,308.224C281.748,308.984 280.607,309.211 279.545,308.732C278.483,308.252 277.899,307.245 278.243,306.485C278.586,305.725 279.727,305.498 280.789,305.977ZM275.939,302.721C277.001,303.2 277.585,304.207 277.241,304.967C276.898,305.727 275.757,305.954 274.695,305.475C273.633,304.995 273.049,303.988 273.392,303.228C273.736,302.468 274.877,302.241 275.939,302.721ZM271.089,299.464C272.151,299.943 272.734,300.95 272.391,301.71C272.048,302.47 270.907,302.698 269.845,302.218C268.783,301.738 268.199,300.731 268.542,299.971C268.886,299.211 270.027,298.984 271.089,299.464Z" style="fill:#ffb81f;"/>
            <path d="M319.141,305.977C318.079,306.457 317.496,307.464 317.839,308.224C318.182,308.984 319.323,309.211 320.386,308.732C321.448,308.252 322.031,307.245 321.688,306.485C321.345,305.725 320.203,305.498 319.141,305.977ZM323.991,302.721C322.929,303.2 322.346,304.207 322.689,304.967C323.033,305.727 324.174,305.954 325.236,305.475C326.298,304.995 326.881,303.988 326.538,303.228C326.195,302.468 325.054,302.241 323.991,302.721ZM328.842,299.464C327.779,299.943 327.196,300.95 327.539,301.71C327.883,302.47 329.024,302.698 330.086,302.218C331.148,301.738 331.731,300.731 331.388,299.971C331.045,299.211 329.904,298.984 328.842,299.464Z" style="fill:#ffb81f;"/>
            <path d="M299.516,285.408C310.893,285.408 320.129,284.795 320.129,286.559C320.129,288.323 310.893,289.756 299.516,289.756C288.139,289.756 278.903,288.323 278.903,286.559C278.903,284.795 288.139,285.408 299.516,285.408Z" style="fill:#ffe685;"/>
            <path d="M242.911,151.353C243.995,152.394 244.274,153.868 243.531,154.641C242.789,155.414 241.306,155.196 240.221,154.154C239.136,153.112 238.858,151.639 239.6,150.866C240.342,150.093 241.826,150.311 242.911,151.353Z" style="fill:#a92b00;"/>
            <path d="M279.69,130.069C279.648,131.573 278.743,132.768 277.672,132.738C276.601,132.708 275.766,131.462 275.808,129.959C275.851,128.456 276.755,127.26 277.827,127.29C278.898,127.321 279.733,128.566 279.69,130.069Z" style="fill:#e53a00;"/>
            <path d="M278.859,136.956C278.831,137.944 278.009,138.724 277.026,138.696C276.042,138.668 275.266,137.843 275.294,136.854C275.322,135.866 276.144,135.085 277.127,135.113C278.111,135.141 278.887,135.967 278.859,136.956Z" style="fill:#e53a00;"/>
            <path d="M323.572,115.362C323.544,116.351 322.722,117.131 321.739,117.103C320.755,117.075 319.979,116.249 320.007,115.261C320.035,114.272 320.857,113.492 321.84,113.52C322.824,113.548 323.6,114.373 323.572,115.362Z" style="fill:#e53a00;"/>
            <path d="M324.267,149.524C324.2,151.887 322.236,153.752 319.885,153.685C317.533,153.618 315.679,151.645 315.746,149.282C315.813,146.918 317.777,145.053 320.128,145.12C322.48,145.187 324.334,147.16 324.267,149.524Z" style="fill:#e53a00;"/>
            <path d="M339.186,152.794C341.5,153.093 343.167,154.971 342.906,156.986C342.646,159 340.556,160.393 338.243,160.095C335.929,159.796 334.262,157.917 334.522,155.902C334.783,153.888 336.872,152.495 339.186,152.794Z" style="fill:#a92b00;"/>
            <path d="M355.055,153.411C356.546,153.011 357.959,153.445 358.21,154.379C358.46,155.313 357.453,156.396 355.962,156.796C354.472,157.195 353.058,156.761 352.808,155.827C352.557,154.893 353.564,153.81 355.055,153.411Z" style="fill:#a92b00;"/>
            <path d="M361.478,149.283C362.773,148.936 364.112,149.724 364.465,151.043C364.818,152.361 364.054,153.713 362.758,154.06C361.463,154.407 360.125,153.619 359.772,152.301C359.418,150.983 360.183,149.631 361.478,149.283Z" style="fill:#a92b00;"/>
        </g>
    </g>
    <defs>
        <radialGradient id="_Radial1" cx="0" cy="0" r="1" gradientUnits="userSpaceOnUse" gradientTransform="matrix(2.19595e-14,-366.128,358.626,2.24189e-14,300,200.041)"><stop offset="0" style="stop-color:#fff;stop-opacity:1"/><stop offset="1" style="stop-color:#eee;stop-opacity:1"/></radialGradient>
    </defs>
</svg>
